%TF.GenerationSoftware,KiCad,Pcbnew,(5.99.0-11667-g1edb96cc5b)*%
%TF.CreationDate,2021-10-01T11:57:38+02:00*%
%TF.ProjectId,tosadapter,746f7361-6461-4707-9465-722e6b696361,rev?*%
%TF.SameCoordinates,Original*%
%TF.FileFunction,Soldermask,Bot*%
%TF.FilePolarity,Negative*%
%FSLAX46Y46*%
G04 Gerber Fmt 4.6, Leading zero omitted, Abs format (unit mm)*
G04 Created by KiCad (PCBNEW (5.99.0-11667-g1edb96cc5b)) date 2021-10-01 11:57:38*
%MOMM*%
%LPD*%
G01*
G04 APERTURE LIST*
%ADD10R,1.600000X2.400000*%
%ADD11O,1.600000X2.400000*%
G04 APERTURE END LIST*
D10*
%TO.C, *%
X155120000Y-74770000D03*
D11*
X152580000Y-74770000D03*
X150040000Y-74770000D03*
X147500000Y-74770000D03*
X144960000Y-74770000D03*
X142420000Y-74770000D03*
X139880000Y-74770000D03*
X137340000Y-74770000D03*
X134800000Y-74770000D03*
X132260000Y-74770000D03*
X129720000Y-74770000D03*
X127180000Y-74770000D03*
X124640000Y-74770000D03*
X122100000Y-74770000D03*
X119560000Y-74770000D03*
X117020000Y-74770000D03*
X117020000Y-90010000D03*
X119560000Y-90010000D03*
X122100000Y-90010000D03*
X124640000Y-90010000D03*
X127180000Y-90010000D03*
X129720000Y-90010000D03*
X132260000Y-90010000D03*
X134800000Y-90010000D03*
X137340000Y-90010000D03*
X139880000Y-90010000D03*
X142420000Y-90010000D03*
X144960000Y-90010000D03*
X147500000Y-90010000D03*
X150040000Y-90010000D03*
X152580000Y-90010000D03*
X155120000Y-90010000D03*
%TD*%
D10*
%TO.C, *%
X150120000Y-100010000D03*
D11*
X147580000Y-100010000D03*
X145040000Y-100010000D03*
X142500000Y-100010000D03*
X139960000Y-100010000D03*
X137420000Y-100010000D03*
X134880000Y-100010000D03*
X132340000Y-100010000D03*
X129800000Y-100010000D03*
X127260000Y-100010000D03*
X124720000Y-100010000D03*
X122180000Y-100010000D03*
X119640000Y-100010000D03*
X117100000Y-100010000D03*
X117100000Y-84770000D03*
X119640000Y-84770000D03*
X122180000Y-84770000D03*
X124720000Y-84770000D03*
X127260000Y-84770000D03*
X129800000Y-84770000D03*
X132340000Y-84770000D03*
X134880000Y-84770000D03*
X137420000Y-84770000D03*
X139960000Y-84770000D03*
X142500000Y-84770000D03*
X145040000Y-84770000D03*
X147580000Y-84770000D03*
X150120000Y-84770000D03*
%TD*%
M02*
