M48
; DRILL file {KiCad (5.99.0-11667-g1edb96cc5b)} date Fri Oct  1 11:57:39 2021
; FORMAT={-:-/ absolute / metric / decimal}
; #@! TF.CreationDate,2021-10-01T11:57:39+02:00
; #@! TF.GenerationSoftware,Kicad,Pcbnew,(5.99.0-11667-g1edb96cc5b)
; #@! TF.FileFunction,Plated,1,2,PTH
FMAT,2
METRIC
; #@! TA.AperFunction,Plated,PTH,ComponentDrill
T1C0.800
%
G90
G05
T1
X117.02Y-74.77
X117.02Y-90.01
X117.1Y-84.77
X117.1Y-100.01
X119.56Y-74.77
X119.56Y-90.01
X119.64Y-84.77
X119.64Y-100.01
X122.1Y-74.77
X122.1Y-90.01
X122.18Y-84.77
X122.18Y-100.01
X124.64Y-74.77
X124.64Y-90.01
X124.72Y-84.77
X124.72Y-100.01
X127.18Y-74.77
X127.18Y-90.01
X127.26Y-84.77
X127.26Y-100.01
X129.72Y-74.77
X129.72Y-90.01
X129.8Y-84.77
X129.8Y-100.01
X132.26Y-74.77
X132.26Y-90.01
X132.34Y-84.77
X132.34Y-100.01
X134.8Y-74.77
X134.8Y-90.01
X134.88Y-84.77
X134.88Y-100.01
X137.34Y-74.77
X137.34Y-90.01
X137.42Y-84.77
X137.42Y-100.01
X139.88Y-74.77
X139.88Y-90.01
X139.96Y-84.77
X139.96Y-100.01
X142.42Y-74.77
X142.42Y-90.01
X142.5Y-84.77
X142.5Y-100.01
X144.96Y-74.77
X144.96Y-90.01
X145.04Y-84.77
X145.04Y-100.01
X147.5Y-74.77
X147.5Y-90.01
X147.58Y-84.77
X147.58Y-100.01
X150.04Y-74.77
X150.04Y-90.01
X150.12Y-84.77
X150.12Y-100.01
X152.58Y-74.77
X152.58Y-90.01
X155.12Y-74.77
X155.12Y-90.01
T0
M30
