%TF.GenerationSoftware,KiCad,Pcbnew,(5.99.0-11667-g1edb96cc5b)*%
%TF.CreationDate,2021-10-01T11:57:37+02:00*%
%TF.ProjectId,tosadapter,746f7361-6461-4707-9465-722e6b696361,rev?*%
%TF.SameCoordinates,Original*%
%TF.FileFunction,Copper,L1,Top*%
%TF.FilePolarity,Positive*%
%FSLAX46Y46*%
G04 Gerber Fmt 4.6, Leading zero omitted, Abs format (unit mm)*
G04 Created by KiCad (PCBNEW (5.99.0-11667-g1edb96cc5b)) date 2021-10-01 11:57:37*
%MOMM*%
%LPD*%
G01*
G04 APERTURE LIST*
%TA.AperFunction,ComponentPad*%
%ADD10R,1.600000X2.400000*%
%TD*%
%TA.AperFunction,ComponentPad*%
%ADD11O,1.600000X2.400000*%
%TD*%
%TA.AperFunction,Conductor*%
%ADD12C,0.250000*%
%TD*%
%TA.AperFunction,Conductor*%
%ADD13C,0.500000*%
%TD*%
G04 APERTURE END LIST*
D10*
%TO.P, ,1*%
%TO.N,N/C*%
X155120000Y-74770000D03*
D11*
%TO.P, ,2*%
X152580000Y-74770000D03*
%TO.P, ,3*%
X150040000Y-74770000D03*
%TO.P, ,4*%
X147500000Y-74770000D03*
%TO.P, ,5*%
X144960000Y-74770000D03*
%TO.P, ,6*%
X142420000Y-74770000D03*
%TO.P, ,7*%
X139880000Y-74770000D03*
%TO.P, ,8*%
X137340000Y-74770000D03*
%TO.P, ,9*%
X134800000Y-74770000D03*
%TO.P, ,10*%
X132260000Y-74770000D03*
%TO.P, ,11*%
X129720000Y-74770000D03*
%TO.P, ,12*%
X127180000Y-74770000D03*
%TO.P, ,13*%
X124640000Y-74770000D03*
%TO.P, ,14*%
X122100000Y-74770000D03*
%TO.P, ,15*%
X119560000Y-74770000D03*
%TO.P, ,16*%
X117020000Y-74770000D03*
%TO.P, ,17*%
X117020000Y-90010000D03*
%TO.P, ,18*%
X119560000Y-90010000D03*
%TO.P, ,19*%
X122100000Y-90010000D03*
%TO.P, ,20*%
X124640000Y-90010000D03*
%TO.P, ,21*%
X127180000Y-90010000D03*
%TO.P, ,22*%
X129720000Y-90010000D03*
%TO.P, ,23*%
X132260000Y-90010000D03*
%TO.P, ,24*%
X134800000Y-90010000D03*
%TO.P, ,25*%
X137340000Y-90010000D03*
%TO.P, ,26*%
X139880000Y-90010000D03*
%TO.P, ,27*%
X142420000Y-90010000D03*
%TO.P, ,28*%
X144960000Y-90010000D03*
%TO.P, ,29*%
X147500000Y-90010000D03*
%TO.P, ,30*%
X150040000Y-90010000D03*
%TO.P, ,31*%
X152580000Y-90010000D03*
%TO.P, ,32*%
X155120000Y-90010000D03*
%TD*%
D10*
%TO.P, ,1*%
%TO.N,N/C*%
X150120000Y-100010000D03*
D11*
%TO.P, ,2*%
X147580000Y-100010000D03*
%TO.P, ,3*%
X145040000Y-100010000D03*
%TO.P, ,4*%
X142500000Y-100010000D03*
%TO.P, ,5*%
X139960000Y-100010000D03*
%TO.P, ,6*%
X137420000Y-100010000D03*
%TO.P, ,7*%
X134880000Y-100010000D03*
%TO.P, ,8*%
X132340000Y-100010000D03*
%TO.P, ,9*%
X129800000Y-100010000D03*
%TO.P, ,10*%
X127260000Y-100010000D03*
%TO.P, ,11*%
X124720000Y-100010000D03*
%TO.P, ,12*%
X122180000Y-100010000D03*
%TO.P, ,13*%
X119640000Y-100010000D03*
%TO.P, ,14*%
X117100000Y-100010000D03*
%TO.P, ,15*%
X117100000Y-84770000D03*
%TO.P, ,16*%
X119640000Y-84770000D03*
%TO.P, ,17*%
X122180000Y-84770000D03*
%TO.P, ,18*%
X124720000Y-84770000D03*
%TO.P, ,19*%
X127260000Y-84770000D03*
%TO.P, ,20*%
X129800000Y-84770000D03*
%TO.P, ,21*%
X132340000Y-84770000D03*
%TO.P, ,22*%
X134880000Y-84770000D03*
%TO.P, ,23*%
X137420000Y-84770000D03*
%TO.P, ,24*%
X139960000Y-84770000D03*
%TO.P, ,25*%
X142500000Y-84770000D03*
%TO.P, ,26*%
X145040000Y-84770000D03*
%TO.P, ,27*%
X147580000Y-84770000D03*
%TO.P, ,28*%
X150120000Y-84770000D03*
%TD*%
D12*
%TO.N,*%
X127260000Y-74850000D02*
X127180000Y-74770000D01*
X147580000Y-74850000D02*
X147500000Y-74770000D01*
D13*
X134090000Y-87320000D02*
X117560000Y-87320000D01*
D12*
X124720000Y-84810000D02*
X124720000Y-74850000D01*
X132340000Y-74850000D02*
X132260000Y-74770000D01*
X132340000Y-100050000D02*
X132340000Y-90090000D01*
X134880000Y-100050000D02*
X134880000Y-92870000D01*
X134880000Y-84810000D02*
X134880000Y-74850000D01*
X124720000Y-74850000D02*
X124640000Y-74770000D01*
X150120000Y-90090000D02*
X150040000Y-90010000D01*
X147580000Y-90090000D02*
X147500000Y-90010000D01*
X132340000Y-90090000D02*
X132260000Y-90010000D01*
X119640000Y-74850000D02*
X119560000Y-74770000D01*
X147580000Y-100050000D02*
X147580000Y-90090000D01*
X122180000Y-100050000D02*
X122180000Y-90090000D01*
X127260000Y-84810000D02*
X127260000Y-74850000D01*
X119640000Y-84810000D02*
X119640000Y-74850000D01*
X117100000Y-74850000D02*
X117020000Y-74770000D01*
X150120000Y-100050000D02*
X150120000Y-90090000D01*
D13*
X152580000Y-90010000D02*
X155120000Y-90010000D01*
D12*
X137420000Y-74850000D02*
X137340000Y-74770000D01*
X129800000Y-74850000D02*
X129720000Y-74770000D01*
X122180000Y-74850000D02*
X122100000Y-74770000D01*
X124720000Y-90090000D02*
X124640000Y-90010000D01*
X132340000Y-84810000D02*
X132340000Y-74850000D01*
X142500000Y-74850000D02*
X142420000Y-74770000D01*
X137420000Y-100050000D02*
X137420000Y-90090000D01*
X137420000Y-84810000D02*
X137420000Y-74850000D01*
X119640000Y-100050000D02*
X119640000Y-90090000D01*
X147580000Y-84810000D02*
X147580000Y-74850000D01*
D13*
X117100000Y-84810000D02*
X117100000Y-74850000D01*
D12*
X127260000Y-90090000D02*
X127180000Y-90010000D01*
X137420000Y-90090000D02*
X137340000Y-90010000D01*
X145040000Y-84810000D02*
X145040000Y-74850000D01*
X136160000Y-91590000D02*
X136160000Y-88370000D01*
X139960000Y-90090000D02*
X139880000Y-90010000D01*
X134880000Y-74850000D02*
X134800000Y-74770000D01*
X122180000Y-84810000D02*
X122180000Y-74850000D01*
X150120000Y-74850000D02*
X150040000Y-74770000D01*
X150120000Y-84810000D02*
X150120000Y-74850000D01*
D13*
X134800000Y-88030000D02*
X134090000Y-87320000D01*
D12*
X139960000Y-74850000D02*
X139880000Y-74770000D01*
X129800000Y-84810000D02*
X129800000Y-74850000D01*
X142500000Y-90090000D02*
X142420000Y-90010000D01*
X142500000Y-100050000D02*
X142500000Y-90090000D01*
X152580000Y-86810000D02*
X152580000Y-74770000D01*
X124720000Y-100050000D02*
X124720000Y-90090000D01*
X139960000Y-84810000D02*
X139960000Y-74850000D01*
X129800000Y-90090000D02*
X129720000Y-90010000D01*
X134880000Y-92870000D02*
X136160000Y-91590000D01*
X145040000Y-100050000D02*
X145040000Y-90090000D01*
D13*
X155120000Y-90010000D02*
X155120000Y-74770000D01*
D12*
X145040000Y-74850000D02*
X144960000Y-74770000D01*
X117100000Y-100050000D02*
X117100000Y-90090000D01*
X145040000Y-90090000D02*
X144960000Y-90010000D01*
X142500000Y-84810000D02*
X142500000Y-74850000D01*
X136160000Y-88370000D02*
X137140000Y-87390000D01*
X152000000Y-87390000D02*
X152580000Y-86810000D01*
D13*
X117100000Y-86860000D02*
X117100000Y-84810000D01*
D12*
X137140000Y-87390000D02*
X152000000Y-87390000D01*
D13*
X117560000Y-87320000D02*
X117100000Y-86860000D01*
D12*
X122180000Y-90090000D02*
X122100000Y-90010000D01*
X139960000Y-100050000D02*
X139960000Y-90090000D01*
X127260000Y-100050000D02*
X127260000Y-90090000D01*
D13*
X152580000Y-90010000D02*
X150040000Y-90010000D01*
D12*
X119640000Y-90090000D02*
X119560000Y-90010000D01*
X117100000Y-90090000D02*
X117020000Y-90010000D01*
D13*
X134800000Y-90010000D02*
X134800000Y-88030000D01*
D12*
X129800000Y-100050000D02*
X129800000Y-90090000D01*
%TD*%
%TA.AperFunction,NonConductor*%
G36*
X156660000Y-99030000D02*
G01*
X151120500Y-99030000D01*
X151120500Y-98790252D01*
X151108867Y-98731769D01*
X151064552Y-98665448D01*
X150998231Y-98621133D01*
X150986062Y-98618712D01*
X150986061Y-98618712D01*
X150945816Y-98610707D01*
X150939748Y-98609500D01*
X150571500Y-98609500D01*
X150503379Y-98589498D01*
X150456886Y-98535842D01*
X150445500Y-98483500D01*
X150445500Y-91880000D01*
X156660000Y-91880000D01*
X156660000Y-99030000D01*
G37*
%TD.AperFunction*%
%TA.AperFunction,NonConductor*%
G36*
X119203200Y-73220002D02*
G01*
X119249693Y-73273658D01*
X119259797Y-73343932D01*
X119230303Y-73408512D01*
X119178588Y-73444249D01*
X119119148Y-73466119D01*
X119113728Y-73469479D01*
X119113727Y-73469480D01*
X118951824Y-73569863D01*
X118951820Y-73569866D01*
X118946401Y-73573226D01*
X118798720Y-73712881D01*
X118682137Y-73879379D01*
X118601414Y-74065919D01*
X118559849Y-74264880D01*
X118559500Y-74271539D01*
X118559500Y-75220800D01*
X118574880Y-75372216D01*
X118635662Y-75566172D01*
X118734203Y-75743944D01*
X118866477Y-75898271D01*
X119027081Y-76022848D01*
X119209455Y-76112587D01*
X119220264Y-76115402D01*
X119281142Y-76151931D01*
X119312607Y-76215574D01*
X119314500Y-76237333D01*
X119314500Y-83335779D01*
X119294498Y-83403900D01*
X119240842Y-83450393D01*
X119232009Y-83454029D01*
X119199148Y-83466119D01*
X119193728Y-83469479D01*
X119193727Y-83469480D01*
X119031824Y-83569863D01*
X119031823Y-83569864D01*
X119026401Y-83573226D01*
X118878720Y-83712881D01*
X118762137Y-83879379D01*
X118681414Y-84065919D01*
X118639849Y-84264880D01*
X118639500Y-84271539D01*
X118639500Y-85220800D01*
X118654880Y-85372216D01*
X118715662Y-85566172D01*
X118814203Y-85743944D01*
X118946477Y-85898271D01*
X119107081Y-86022848D01*
X119289455Y-86112587D01*
X119295633Y-86114196D01*
X119295635Y-86114197D01*
X119479966Y-86162212D01*
X119479969Y-86162212D01*
X119486148Y-86163822D01*
X119567328Y-86168076D01*
X119682744Y-86174125D01*
X119682748Y-86174125D01*
X119689126Y-86174459D01*
X119890097Y-86144065D01*
X120080852Y-86073881D01*
X120090500Y-86067899D01*
X120248176Y-85970137D01*
X120248180Y-85970134D01*
X120253599Y-85966774D01*
X120401280Y-85827119D01*
X120517863Y-85660621D01*
X120598586Y-85474081D01*
X120640151Y-85275120D01*
X120640500Y-85268461D01*
X120640500Y-84319200D01*
X120625120Y-84167784D01*
X120564338Y-83973828D01*
X120465797Y-83796056D01*
X120333523Y-83641729D01*
X120172919Y-83517152D01*
X120167198Y-83514337D01*
X120167195Y-83514335D01*
X120035871Y-83449716D01*
X119983580Y-83401693D01*
X119965500Y-83336661D01*
X119965500Y-76165931D01*
X119985502Y-76097810D01*
X120025104Y-76058844D01*
X120042221Y-76048231D01*
X120173599Y-75966774D01*
X120321280Y-75827119D01*
X120437863Y-75660621D01*
X120518586Y-75474081D01*
X120560151Y-75275120D01*
X120560500Y-75268461D01*
X120560500Y-74319200D01*
X120545120Y-74167784D01*
X120484338Y-73973828D01*
X120385797Y-73796056D01*
X120253523Y-73641729D01*
X120092919Y-73517152D01*
X119984731Y-73463917D01*
X119934205Y-73439055D01*
X119881914Y-73391032D01*
X119863888Y-73322362D01*
X119885848Y-73254847D01*
X119940824Y-73209923D01*
X119989835Y-73200000D01*
X121675079Y-73200000D01*
X121743200Y-73220002D01*
X121789693Y-73273658D01*
X121799797Y-73343932D01*
X121770303Y-73408512D01*
X121718588Y-73444249D01*
X121659148Y-73466119D01*
X121653728Y-73469479D01*
X121653727Y-73469480D01*
X121491824Y-73569863D01*
X121491820Y-73569866D01*
X121486401Y-73573226D01*
X121338720Y-73712881D01*
X121222137Y-73879379D01*
X121141414Y-74065919D01*
X121099849Y-74264880D01*
X121099500Y-74271539D01*
X121099500Y-75220800D01*
X121114880Y-75372216D01*
X121175662Y-75566172D01*
X121274203Y-75743944D01*
X121406477Y-75898271D01*
X121567081Y-76022848D01*
X121749455Y-76112587D01*
X121760264Y-76115402D01*
X121821142Y-76151931D01*
X121852607Y-76215574D01*
X121854500Y-76237333D01*
X121854500Y-83335779D01*
X121834498Y-83403900D01*
X121780842Y-83450393D01*
X121772009Y-83454029D01*
X121739148Y-83466119D01*
X121733728Y-83469479D01*
X121733727Y-83469480D01*
X121571824Y-83569863D01*
X121571823Y-83569864D01*
X121566401Y-83573226D01*
X121418720Y-83712881D01*
X121302137Y-83879379D01*
X121221414Y-84065919D01*
X121179849Y-84264880D01*
X121179500Y-84271539D01*
X121179500Y-85220800D01*
X121194880Y-85372216D01*
X121255662Y-85566172D01*
X121354203Y-85743944D01*
X121486477Y-85898271D01*
X121647081Y-86022848D01*
X121829455Y-86112587D01*
X121835633Y-86114196D01*
X121835635Y-86114197D01*
X122019966Y-86162212D01*
X122019969Y-86162212D01*
X122026148Y-86163822D01*
X122107328Y-86168076D01*
X122222744Y-86174125D01*
X122222748Y-86174125D01*
X122229126Y-86174459D01*
X122430097Y-86144065D01*
X122620852Y-86073881D01*
X122630500Y-86067899D01*
X122788176Y-85970137D01*
X122788180Y-85970134D01*
X122793599Y-85966774D01*
X122941280Y-85827119D01*
X123057863Y-85660621D01*
X123138586Y-85474081D01*
X123180151Y-85275120D01*
X123180500Y-85268461D01*
X123180500Y-84319200D01*
X123165120Y-84167784D01*
X123104338Y-83973828D01*
X123005797Y-83796056D01*
X122873523Y-83641729D01*
X122712919Y-83517152D01*
X122707198Y-83514337D01*
X122707195Y-83514335D01*
X122575871Y-83449716D01*
X122523580Y-83401693D01*
X122505500Y-83336661D01*
X122505500Y-76165931D01*
X122525502Y-76097810D01*
X122565104Y-76058844D01*
X122582221Y-76048231D01*
X122713599Y-75966774D01*
X122861280Y-75827119D01*
X122977863Y-75660621D01*
X123058586Y-75474081D01*
X123100151Y-75275120D01*
X123100500Y-75268461D01*
X123100500Y-74319200D01*
X123085120Y-74167784D01*
X123024338Y-73973828D01*
X122925797Y-73796056D01*
X122793523Y-73641729D01*
X122632919Y-73517152D01*
X122524731Y-73463917D01*
X122474205Y-73439055D01*
X122421914Y-73391032D01*
X122403888Y-73322362D01*
X122425848Y-73254847D01*
X122480824Y-73209923D01*
X122529835Y-73200000D01*
X124215079Y-73200000D01*
X124283200Y-73220002D01*
X124329693Y-73273658D01*
X124339797Y-73343932D01*
X124310303Y-73408512D01*
X124258588Y-73444249D01*
X124199148Y-73466119D01*
X124193728Y-73469479D01*
X124193727Y-73469480D01*
X124031824Y-73569863D01*
X124031820Y-73569866D01*
X124026401Y-73573226D01*
X123878720Y-73712881D01*
X123762137Y-73879379D01*
X123681414Y-74065919D01*
X123639849Y-74264880D01*
X123639500Y-74271539D01*
X123639500Y-75220800D01*
X123654880Y-75372216D01*
X123715662Y-75566172D01*
X123814203Y-75743944D01*
X123946477Y-75898271D01*
X124107081Y-76022848D01*
X124289455Y-76112587D01*
X124300264Y-76115402D01*
X124361142Y-76151931D01*
X124392607Y-76215574D01*
X124394500Y-76237333D01*
X124394500Y-83335779D01*
X124374498Y-83403900D01*
X124320842Y-83450393D01*
X124312009Y-83454029D01*
X124279148Y-83466119D01*
X124273728Y-83469479D01*
X124273727Y-83469480D01*
X124111824Y-83569863D01*
X124111823Y-83569864D01*
X124106401Y-83573226D01*
X123958720Y-83712881D01*
X123842137Y-83879379D01*
X123761414Y-84065919D01*
X123719849Y-84264880D01*
X123719500Y-84271539D01*
X123719500Y-85220800D01*
X123734880Y-85372216D01*
X123795662Y-85566172D01*
X123894203Y-85743944D01*
X124026477Y-85898271D01*
X124187081Y-86022848D01*
X124369455Y-86112587D01*
X124375633Y-86114196D01*
X124375635Y-86114197D01*
X124559966Y-86162212D01*
X124559969Y-86162212D01*
X124566148Y-86163822D01*
X124647328Y-86168076D01*
X124762744Y-86174125D01*
X124762748Y-86174125D01*
X124769126Y-86174459D01*
X124970097Y-86144065D01*
X125160852Y-86073881D01*
X125170500Y-86067899D01*
X125328176Y-85970137D01*
X125328180Y-85970134D01*
X125333599Y-85966774D01*
X125481280Y-85827119D01*
X125597863Y-85660621D01*
X125678586Y-85474081D01*
X125720151Y-85275120D01*
X125720500Y-85268461D01*
X125720500Y-84319200D01*
X125705120Y-84167784D01*
X125644338Y-83973828D01*
X125545797Y-83796056D01*
X125413523Y-83641729D01*
X125252919Y-83517152D01*
X125247198Y-83514337D01*
X125247195Y-83514335D01*
X125115871Y-83449716D01*
X125063580Y-83401693D01*
X125045500Y-83336661D01*
X125045500Y-76165931D01*
X125065502Y-76097810D01*
X125105104Y-76058844D01*
X125122221Y-76048231D01*
X125253599Y-75966774D01*
X125401280Y-75827119D01*
X125517863Y-75660621D01*
X125598586Y-75474081D01*
X125640151Y-75275120D01*
X125640500Y-75268461D01*
X125640500Y-74319200D01*
X125625120Y-74167784D01*
X125564338Y-73973828D01*
X125465797Y-73796056D01*
X125333523Y-73641729D01*
X125172919Y-73517152D01*
X125064731Y-73463917D01*
X125014205Y-73439055D01*
X124961914Y-73391032D01*
X124943888Y-73322362D01*
X124965848Y-73254847D01*
X125020824Y-73209923D01*
X125069835Y-73200000D01*
X126755079Y-73200000D01*
X126823200Y-73220002D01*
X126869693Y-73273658D01*
X126879797Y-73343932D01*
X126850303Y-73408512D01*
X126798588Y-73444249D01*
X126739148Y-73466119D01*
X126733728Y-73469479D01*
X126733727Y-73469480D01*
X126571824Y-73569863D01*
X126571820Y-73569866D01*
X126566401Y-73573226D01*
X126418720Y-73712881D01*
X126302137Y-73879379D01*
X126221414Y-74065919D01*
X126179849Y-74264880D01*
X126179500Y-74271539D01*
X126179500Y-75220800D01*
X126194880Y-75372216D01*
X126255662Y-75566172D01*
X126354203Y-75743944D01*
X126486477Y-75898271D01*
X126647081Y-76022848D01*
X126829455Y-76112587D01*
X126840264Y-76115402D01*
X126901142Y-76151931D01*
X126932607Y-76215574D01*
X126934500Y-76237333D01*
X126934500Y-83335779D01*
X126914498Y-83403900D01*
X126860842Y-83450393D01*
X126852009Y-83454029D01*
X126819148Y-83466119D01*
X126813728Y-83469479D01*
X126813727Y-83469480D01*
X126651824Y-83569863D01*
X126651823Y-83569864D01*
X126646401Y-83573226D01*
X126498720Y-83712881D01*
X126382137Y-83879379D01*
X126301414Y-84065919D01*
X126259849Y-84264880D01*
X126259500Y-84271539D01*
X126259500Y-85220800D01*
X126274880Y-85372216D01*
X126335662Y-85566172D01*
X126434203Y-85743944D01*
X126566477Y-85898271D01*
X126727081Y-86022848D01*
X126909455Y-86112587D01*
X126915633Y-86114196D01*
X126915635Y-86114197D01*
X127099966Y-86162212D01*
X127099969Y-86162212D01*
X127106148Y-86163822D01*
X127187328Y-86168076D01*
X127302744Y-86174125D01*
X127302748Y-86174125D01*
X127309126Y-86174459D01*
X127510097Y-86144065D01*
X127700852Y-86073881D01*
X127710500Y-86067899D01*
X127868176Y-85970137D01*
X127868180Y-85970134D01*
X127873599Y-85966774D01*
X128021280Y-85827119D01*
X128137863Y-85660621D01*
X128218586Y-85474081D01*
X128260151Y-85275120D01*
X128260500Y-85268461D01*
X128260500Y-84319200D01*
X128245120Y-84167784D01*
X128184338Y-83973828D01*
X128085797Y-83796056D01*
X127953523Y-83641729D01*
X127792919Y-83517152D01*
X127787198Y-83514337D01*
X127787195Y-83514335D01*
X127655871Y-83449716D01*
X127603580Y-83401693D01*
X127585500Y-83336661D01*
X127585500Y-76165931D01*
X127605502Y-76097810D01*
X127645104Y-76058844D01*
X127662221Y-76048231D01*
X127793599Y-75966774D01*
X127941280Y-75827119D01*
X128057863Y-75660621D01*
X128138586Y-75474081D01*
X128180151Y-75275120D01*
X128180500Y-75268461D01*
X128180500Y-74319200D01*
X128165120Y-74167784D01*
X128104338Y-73973828D01*
X128005797Y-73796056D01*
X127873523Y-73641729D01*
X127712919Y-73517152D01*
X127604731Y-73463917D01*
X127554205Y-73439055D01*
X127501914Y-73391032D01*
X127483888Y-73322362D01*
X127505848Y-73254847D01*
X127560824Y-73209923D01*
X127609835Y-73200000D01*
X129295079Y-73200000D01*
X129363200Y-73220002D01*
X129409693Y-73273658D01*
X129419797Y-73343932D01*
X129390303Y-73408512D01*
X129338588Y-73444249D01*
X129279148Y-73466119D01*
X129273728Y-73469479D01*
X129273727Y-73469480D01*
X129111824Y-73569863D01*
X129111820Y-73569866D01*
X129106401Y-73573226D01*
X128958720Y-73712881D01*
X128842137Y-73879379D01*
X128761414Y-74065919D01*
X128719849Y-74264880D01*
X128719500Y-74271539D01*
X128719500Y-75220800D01*
X128734880Y-75372216D01*
X128795662Y-75566172D01*
X128894203Y-75743944D01*
X129026477Y-75898271D01*
X129187081Y-76022848D01*
X129369455Y-76112587D01*
X129380264Y-76115402D01*
X129441142Y-76151931D01*
X129472607Y-76215574D01*
X129474500Y-76237333D01*
X129474500Y-83335779D01*
X129454498Y-83403900D01*
X129400842Y-83450393D01*
X129392009Y-83454029D01*
X129359148Y-83466119D01*
X129353728Y-83469479D01*
X129353727Y-83469480D01*
X129191824Y-83569863D01*
X129191823Y-83569864D01*
X129186401Y-83573226D01*
X129038720Y-83712881D01*
X128922137Y-83879379D01*
X128841414Y-84065919D01*
X128799849Y-84264880D01*
X128799500Y-84271539D01*
X128799500Y-85220800D01*
X128814880Y-85372216D01*
X128875662Y-85566172D01*
X128974203Y-85743944D01*
X129106477Y-85898271D01*
X129267081Y-86022848D01*
X129449455Y-86112587D01*
X129455633Y-86114196D01*
X129455635Y-86114197D01*
X129639966Y-86162212D01*
X129639969Y-86162212D01*
X129646148Y-86163822D01*
X129727328Y-86168076D01*
X129842744Y-86174125D01*
X129842748Y-86174125D01*
X129849126Y-86174459D01*
X130050097Y-86144065D01*
X130240852Y-86073881D01*
X130250500Y-86067899D01*
X130408176Y-85970137D01*
X130408180Y-85970134D01*
X130413599Y-85966774D01*
X130561280Y-85827119D01*
X130677863Y-85660621D01*
X130758586Y-85474081D01*
X130800151Y-85275120D01*
X130800500Y-85268461D01*
X130800500Y-84319200D01*
X130785120Y-84167784D01*
X130724338Y-83973828D01*
X130625797Y-83796056D01*
X130493523Y-83641729D01*
X130332919Y-83517152D01*
X130327198Y-83514337D01*
X130327195Y-83514335D01*
X130195871Y-83449716D01*
X130143580Y-83401693D01*
X130125500Y-83336661D01*
X130125500Y-76165931D01*
X130145502Y-76097810D01*
X130185104Y-76058844D01*
X130202221Y-76048231D01*
X130333599Y-75966774D01*
X130481280Y-75827119D01*
X130597863Y-75660621D01*
X130678586Y-75474081D01*
X130720151Y-75275120D01*
X130720500Y-75268461D01*
X130720500Y-74319200D01*
X130705120Y-74167784D01*
X130644338Y-73973828D01*
X130545797Y-73796056D01*
X130413523Y-73641729D01*
X130252919Y-73517152D01*
X130144731Y-73463917D01*
X130094205Y-73439055D01*
X130041914Y-73391032D01*
X130023888Y-73322362D01*
X130045848Y-73254847D01*
X130100824Y-73209923D01*
X130149835Y-73200000D01*
X131835079Y-73200000D01*
X131903200Y-73220002D01*
X131949693Y-73273658D01*
X131959797Y-73343932D01*
X131930303Y-73408512D01*
X131878588Y-73444249D01*
X131819148Y-73466119D01*
X131813728Y-73469479D01*
X131813727Y-73469480D01*
X131651824Y-73569863D01*
X131651820Y-73569866D01*
X131646401Y-73573226D01*
X131498720Y-73712881D01*
X131382137Y-73879379D01*
X131301414Y-74065919D01*
X131259849Y-74264880D01*
X131259500Y-74271539D01*
X131259500Y-75220800D01*
X131274880Y-75372216D01*
X131335662Y-75566172D01*
X131434203Y-75743944D01*
X131566477Y-75898271D01*
X131727081Y-76022848D01*
X131909455Y-76112587D01*
X131920264Y-76115402D01*
X131981142Y-76151931D01*
X132012607Y-76215574D01*
X132014500Y-76237333D01*
X132014500Y-83335779D01*
X131994498Y-83403900D01*
X131940842Y-83450393D01*
X131932009Y-83454029D01*
X131899148Y-83466119D01*
X131893728Y-83469479D01*
X131893727Y-83469480D01*
X131731824Y-83569863D01*
X131731823Y-83569864D01*
X131726401Y-83573226D01*
X131578720Y-83712881D01*
X131462137Y-83879379D01*
X131381414Y-84065919D01*
X131339849Y-84264880D01*
X131339500Y-84271539D01*
X131339500Y-85220800D01*
X131354880Y-85372216D01*
X131415662Y-85566172D01*
X131514203Y-85743944D01*
X131646477Y-85898271D01*
X131807081Y-86022848D01*
X131989455Y-86112587D01*
X131995633Y-86114196D01*
X131995635Y-86114197D01*
X132179966Y-86162212D01*
X132179969Y-86162212D01*
X132186148Y-86163822D01*
X132267328Y-86168076D01*
X132382744Y-86174125D01*
X132382748Y-86174125D01*
X132389126Y-86174459D01*
X132590097Y-86144065D01*
X132780852Y-86073881D01*
X132790500Y-86067899D01*
X132948176Y-85970137D01*
X132948180Y-85970134D01*
X132953599Y-85966774D01*
X133101280Y-85827119D01*
X133217863Y-85660621D01*
X133298586Y-85474081D01*
X133340151Y-85275120D01*
X133340500Y-85268461D01*
X133340500Y-84319200D01*
X133325120Y-84167784D01*
X133264338Y-83973828D01*
X133165797Y-83796056D01*
X133033523Y-83641729D01*
X132872919Y-83517152D01*
X132867198Y-83514337D01*
X132867195Y-83514335D01*
X132735871Y-83449716D01*
X132683580Y-83401693D01*
X132665500Y-83336661D01*
X132665500Y-76165931D01*
X132685502Y-76097810D01*
X132725104Y-76058844D01*
X132742221Y-76048231D01*
X132873599Y-75966774D01*
X133021280Y-75827119D01*
X133137863Y-75660621D01*
X133218586Y-75474081D01*
X133260151Y-75275120D01*
X133260500Y-75268461D01*
X133260500Y-74319200D01*
X133245120Y-74167784D01*
X133184338Y-73973828D01*
X133085797Y-73796056D01*
X132953523Y-73641729D01*
X132792919Y-73517152D01*
X132684731Y-73463917D01*
X132634205Y-73439055D01*
X132581914Y-73391032D01*
X132563888Y-73322362D01*
X132585848Y-73254847D01*
X132640824Y-73209923D01*
X132689835Y-73200000D01*
X134375079Y-73200000D01*
X134443200Y-73220002D01*
X134489693Y-73273658D01*
X134499797Y-73343932D01*
X134470303Y-73408512D01*
X134418588Y-73444249D01*
X134359148Y-73466119D01*
X134353728Y-73469479D01*
X134353727Y-73469480D01*
X134191824Y-73569863D01*
X134191820Y-73569866D01*
X134186401Y-73573226D01*
X134038720Y-73712881D01*
X133922137Y-73879379D01*
X133841414Y-74065919D01*
X133799849Y-74264880D01*
X133799500Y-74271539D01*
X133799500Y-75220800D01*
X133814880Y-75372216D01*
X133875662Y-75566172D01*
X133974203Y-75743944D01*
X134106477Y-75898271D01*
X134267081Y-76022848D01*
X134449455Y-76112587D01*
X134460264Y-76115402D01*
X134521142Y-76151931D01*
X134552607Y-76215574D01*
X134554500Y-76237333D01*
X134554500Y-83335779D01*
X134534498Y-83403900D01*
X134480842Y-83450393D01*
X134472009Y-83454029D01*
X134439148Y-83466119D01*
X134433728Y-83469479D01*
X134433727Y-83469480D01*
X134271824Y-83569863D01*
X134271823Y-83569864D01*
X134266401Y-83573226D01*
X134118720Y-83712881D01*
X134002137Y-83879379D01*
X133921414Y-84065919D01*
X133879849Y-84264880D01*
X133879500Y-84271539D01*
X133879500Y-85220800D01*
X133894880Y-85372216D01*
X133955662Y-85566172D01*
X134054203Y-85743944D01*
X134186477Y-85898271D01*
X134347081Y-86022848D01*
X134529455Y-86112587D01*
X134535633Y-86114196D01*
X134535635Y-86114197D01*
X134719966Y-86162212D01*
X134719969Y-86162212D01*
X134726148Y-86163822D01*
X134807328Y-86168076D01*
X134922744Y-86174125D01*
X134922748Y-86174125D01*
X134929126Y-86174459D01*
X135130097Y-86144065D01*
X135320852Y-86073881D01*
X135330500Y-86067899D01*
X135488176Y-85970137D01*
X135488180Y-85970134D01*
X135493599Y-85966774D01*
X135641280Y-85827119D01*
X135757863Y-85660621D01*
X135838586Y-85474081D01*
X135880151Y-85275120D01*
X135880500Y-85268461D01*
X135880500Y-84319200D01*
X135865120Y-84167784D01*
X135804338Y-83973828D01*
X135705797Y-83796056D01*
X135573523Y-83641729D01*
X135412919Y-83517152D01*
X135407198Y-83514337D01*
X135407195Y-83514335D01*
X135275871Y-83449716D01*
X135223580Y-83401693D01*
X135205500Y-83336661D01*
X135205500Y-76165931D01*
X135225502Y-76097810D01*
X135265104Y-76058844D01*
X135282221Y-76048231D01*
X135413599Y-75966774D01*
X135561280Y-75827119D01*
X135677863Y-75660621D01*
X135758586Y-75474081D01*
X135800151Y-75275120D01*
X135800500Y-75268461D01*
X135800500Y-74319200D01*
X135785120Y-74167784D01*
X135724338Y-73973828D01*
X135625797Y-73796056D01*
X135493523Y-73641729D01*
X135332919Y-73517152D01*
X135224731Y-73463917D01*
X135174205Y-73439055D01*
X135121914Y-73391032D01*
X135103888Y-73322362D01*
X135125848Y-73254847D01*
X135180824Y-73209923D01*
X135229835Y-73200000D01*
X136915079Y-73200000D01*
X136983200Y-73220002D01*
X137029693Y-73273658D01*
X137039797Y-73343932D01*
X137010303Y-73408512D01*
X136958588Y-73444249D01*
X136899148Y-73466119D01*
X136893728Y-73469479D01*
X136893727Y-73469480D01*
X136731824Y-73569863D01*
X136731820Y-73569866D01*
X136726401Y-73573226D01*
X136578720Y-73712881D01*
X136462137Y-73879379D01*
X136381414Y-74065919D01*
X136339849Y-74264880D01*
X136339500Y-74271539D01*
X136339500Y-75220800D01*
X136354880Y-75372216D01*
X136415662Y-75566172D01*
X136514203Y-75743944D01*
X136646477Y-75898271D01*
X136807081Y-76022848D01*
X136989455Y-76112587D01*
X137000264Y-76115402D01*
X137061142Y-76151931D01*
X137092607Y-76215574D01*
X137094500Y-76237333D01*
X137094500Y-83335779D01*
X137074498Y-83403900D01*
X137020842Y-83450393D01*
X137012009Y-83454029D01*
X136979148Y-83466119D01*
X136973728Y-83469479D01*
X136973727Y-83469480D01*
X136811824Y-83569863D01*
X136811823Y-83569864D01*
X136806401Y-83573226D01*
X136658720Y-83712881D01*
X136542137Y-83879379D01*
X136461414Y-84065919D01*
X136419849Y-84264880D01*
X136419500Y-84271539D01*
X136419500Y-85220800D01*
X136434880Y-85372216D01*
X136495662Y-85566172D01*
X136594203Y-85743944D01*
X136726477Y-85898271D01*
X136887081Y-86022848D01*
X137069455Y-86112587D01*
X137075633Y-86114196D01*
X137075635Y-86114197D01*
X137259966Y-86162212D01*
X137259969Y-86162212D01*
X137266148Y-86163822D01*
X137347328Y-86168076D01*
X137462744Y-86174125D01*
X137462748Y-86174125D01*
X137469126Y-86174459D01*
X137670097Y-86144065D01*
X137860852Y-86073881D01*
X137870500Y-86067899D01*
X138028176Y-85970137D01*
X138028180Y-85970134D01*
X138033599Y-85966774D01*
X138181280Y-85827119D01*
X138297863Y-85660621D01*
X138378586Y-85474081D01*
X138420151Y-85275120D01*
X138420500Y-85268461D01*
X138420500Y-84319200D01*
X138405120Y-84167784D01*
X138344338Y-83973828D01*
X138245797Y-83796056D01*
X138113523Y-83641729D01*
X137952919Y-83517152D01*
X137947198Y-83514337D01*
X137947195Y-83514335D01*
X137815871Y-83449716D01*
X137763580Y-83401693D01*
X137745500Y-83336661D01*
X137745500Y-76165931D01*
X137765502Y-76097810D01*
X137805104Y-76058844D01*
X137822221Y-76048231D01*
X137953599Y-75966774D01*
X138101280Y-75827119D01*
X138217863Y-75660621D01*
X138298586Y-75474081D01*
X138340151Y-75275120D01*
X138340500Y-75268461D01*
X138340500Y-74319200D01*
X138325120Y-74167784D01*
X138264338Y-73973828D01*
X138165797Y-73796056D01*
X138033523Y-73641729D01*
X137872919Y-73517152D01*
X137764731Y-73463917D01*
X137714205Y-73439055D01*
X137661914Y-73391032D01*
X137643888Y-73322362D01*
X137665848Y-73254847D01*
X137720824Y-73209923D01*
X137769835Y-73200000D01*
X139455079Y-73200000D01*
X139523200Y-73220002D01*
X139569693Y-73273658D01*
X139579797Y-73343932D01*
X139550303Y-73408512D01*
X139498588Y-73444249D01*
X139439148Y-73466119D01*
X139433728Y-73469479D01*
X139433727Y-73469480D01*
X139271824Y-73569863D01*
X139271820Y-73569866D01*
X139266401Y-73573226D01*
X139118720Y-73712881D01*
X139002137Y-73879379D01*
X138921414Y-74065919D01*
X138879849Y-74264880D01*
X138879500Y-74271539D01*
X138879500Y-75220800D01*
X138894880Y-75372216D01*
X138955662Y-75566172D01*
X139054203Y-75743944D01*
X139186477Y-75898271D01*
X139347081Y-76022848D01*
X139529455Y-76112587D01*
X139540264Y-76115402D01*
X139601142Y-76151931D01*
X139632607Y-76215574D01*
X139634500Y-76237333D01*
X139634500Y-83335779D01*
X139614498Y-83403900D01*
X139560842Y-83450393D01*
X139552009Y-83454029D01*
X139519148Y-83466119D01*
X139513728Y-83469479D01*
X139513727Y-83469480D01*
X139351824Y-83569863D01*
X139351823Y-83569864D01*
X139346401Y-83573226D01*
X139198720Y-83712881D01*
X139082137Y-83879379D01*
X139001414Y-84065919D01*
X138959849Y-84264880D01*
X138959500Y-84271539D01*
X138959500Y-85220800D01*
X138974880Y-85372216D01*
X139035662Y-85566172D01*
X139134203Y-85743944D01*
X139266477Y-85898271D01*
X139427081Y-86022848D01*
X139609455Y-86112587D01*
X139615633Y-86114196D01*
X139615635Y-86114197D01*
X139799966Y-86162212D01*
X139799969Y-86162212D01*
X139806148Y-86163822D01*
X139887328Y-86168076D01*
X140002744Y-86174125D01*
X140002748Y-86174125D01*
X140009126Y-86174459D01*
X140210097Y-86144065D01*
X140400852Y-86073881D01*
X140410500Y-86067899D01*
X140568176Y-85970137D01*
X140568180Y-85970134D01*
X140573599Y-85966774D01*
X140721280Y-85827119D01*
X140837863Y-85660621D01*
X140918586Y-85474081D01*
X140960151Y-85275120D01*
X140960500Y-85268461D01*
X140960500Y-84319200D01*
X140945120Y-84167784D01*
X140884338Y-83973828D01*
X140785797Y-83796056D01*
X140653523Y-83641729D01*
X140492919Y-83517152D01*
X140487198Y-83514337D01*
X140487195Y-83514335D01*
X140355871Y-83449716D01*
X140303580Y-83401693D01*
X140285500Y-83336661D01*
X140285500Y-76165931D01*
X140305502Y-76097810D01*
X140345104Y-76058844D01*
X140362221Y-76048231D01*
X140493599Y-75966774D01*
X140641280Y-75827119D01*
X140757863Y-75660621D01*
X140838586Y-75474081D01*
X140880151Y-75275120D01*
X140880500Y-75268461D01*
X140880500Y-74319200D01*
X140865120Y-74167784D01*
X140804338Y-73973828D01*
X140705797Y-73796056D01*
X140573523Y-73641729D01*
X140412919Y-73517152D01*
X140304731Y-73463917D01*
X140254205Y-73439055D01*
X140201914Y-73391032D01*
X140183888Y-73322362D01*
X140205848Y-73254847D01*
X140260824Y-73209923D01*
X140309835Y-73200000D01*
X141995079Y-73200000D01*
X142063200Y-73220002D01*
X142109693Y-73273658D01*
X142119797Y-73343932D01*
X142090303Y-73408512D01*
X142038588Y-73444249D01*
X141979148Y-73466119D01*
X141973728Y-73469479D01*
X141973727Y-73469480D01*
X141811824Y-73569863D01*
X141811820Y-73569866D01*
X141806401Y-73573226D01*
X141658720Y-73712881D01*
X141542137Y-73879379D01*
X141461414Y-74065919D01*
X141419849Y-74264880D01*
X141419500Y-74271539D01*
X141419500Y-75220800D01*
X141434880Y-75372216D01*
X141495662Y-75566172D01*
X141594203Y-75743944D01*
X141726477Y-75898271D01*
X141887081Y-76022848D01*
X142069455Y-76112587D01*
X142080264Y-76115402D01*
X142141142Y-76151931D01*
X142172607Y-76215574D01*
X142174500Y-76237333D01*
X142174500Y-83335779D01*
X142154498Y-83403900D01*
X142100842Y-83450393D01*
X142092009Y-83454029D01*
X142059148Y-83466119D01*
X142053728Y-83469479D01*
X142053727Y-83469480D01*
X141891824Y-83569863D01*
X141891823Y-83569864D01*
X141886401Y-83573226D01*
X141738720Y-83712881D01*
X141622137Y-83879379D01*
X141541414Y-84065919D01*
X141499849Y-84264880D01*
X141499500Y-84271539D01*
X141499500Y-85220800D01*
X141514880Y-85372216D01*
X141575662Y-85566172D01*
X141674203Y-85743944D01*
X141806477Y-85898271D01*
X141967081Y-86022848D01*
X142149455Y-86112587D01*
X142155633Y-86114196D01*
X142155635Y-86114197D01*
X142339966Y-86162212D01*
X142339969Y-86162212D01*
X142346148Y-86163822D01*
X142427328Y-86168076D01*
X142542744Y-86174125D01*
X142542748Y-86174125D01*
X142549126Y-86174459D01*
X142750097Y-86144065D01*
X142940852Y-86073881D01*
X142950500Y-86067899D01*
X143108176Y-85970137D01*
X143108180Y-85970134D01*
X143113599Y-85966774D01*
X143261280Y-85827119D01*
X143377863Y-85660621D01*
X143458586Y-85474081D01*
X143500151Y-85275120D01*
X143500500Y-85268461D01*
X143500500Y-84319200D01*
X143485120Y-84167784D01*
X143424338Y-83973828D01*
X143325797Y-83796056D01*
X143193523Y-83641729D01*
X143032919Y-83517152D01*
X143027198Y-83514337D01*
X143027195Y-83514335D01*
X142895871Y-83449716D01*
X142843580Y-83401693D01*
X142825500Y-83336661D01*
X142825500Y-76165931D01*
X142845502Y-76097810D01*
X142885104Y-76058844D01*
X142902221Y-76048231D01*
X143033599Y-75966774D01*
X143181280Y-75827119D01*
X143297863Y-75660621D01*
X143378586Y-75474081D01*
X143420151Y-75275120D01*
X143420500Y-75268461D01*
X143420500Y-74319200D01*
X143405120Y-74167784D01*
X143344338Y-73973828D01*
X143245797Y-73796056D01*
X143113523Y-73641729D01*
X142952919Y-73517152D01*
X142844731Y-73463917D01*
X142794205Y-73439055D01*
X142741914Y-73391032D01*
X142723888Y-73322362D01*
X142745848Y-73254847D01*
X142800824Y-73209923D01*
X142849835Y-73200000D01*
X144535079Y-73200000D01*
X144603200Y-73220002D01*
X144649693Y-73273658D01*
X144659797Y-73343932D01*
X144630303Y-73408512D01*
X144578588Y-73444249D01*
X144519148Y-73466119D01*
X144513728Y-73469479D01*
X144513727Y-73469480D01*
X144351824Y-73569863D01*
X144351820Y-73569866D01*
X144346401Y-73573226D01*
X144198720Y-73712881D01*
X144082137Y-73879379D01*
X144001414Y-74065919D01*
X143959849Y-74264880D01*
X143959500Y-74271539D01*
X143959500Y-75220800D01*
X143974880Y-75372216D01*
X144035662Y-75566172D01*
X144134203Y-75743944D01*
X144266477Y-75898271D01*
X144427081Y-76022848D01*
X144609455Y-76112587D01*
X144620264Y-76115402D01*
X144681142Y-76151931D01*
X144712607Y-76215574D01*
X144714500Y-76237333D01*
X144714500Y-83335779D01*
X144694498Y-83403900D01*
X144640842Y-83450393D01*
X144632009Y-83454029D01*
X144599148Y-83466119D01*
X144593728Y-83469479D01*
X144593727Y-83469480D01*
X144431824Y-83569863D01*
X144431823Y-83569864D01*
X144426401Y-83573226D01*
X144278720Y-83712881D01*
X144162137Y-83879379D01*
X144081414Y-84065919D01*
X144039849Y-84264880D01*
X144039500Y-84271539D01*
X144039500Y-85220800D01*
X144054880Y-85372216D01*
X144115662Y-85566172D01*
X144214203Y-85743944D01*
X144346477Y-85898271D01*
X144507081Y-86022848D01*
X144689455Y-86112587D01*
X144695633Y-86114196D01*
X144695635Y-86114197D01*
X144879966Y-86162212D01*
X144879969Y-86162212D01*
X144886148Y-86163822D01*
X144967328Y-86168076D01*
X145082744Y-86174125D01*
X145082748Y-86174125D01*
X145089126Y-86174459D01*
X145290097Y-86144065D01*
X145480852Y-86073881D01*
X145490500Y-86067899D01*
X145648176Y-85970137D01*
X145648180Y-85970134D01*
X145653599Y-85966774D01*
X145801280Y-85827119D01*
X145917863Y-85660621D01*
X145998586Y-85474081D01*
X146040151Y-85275120D01*
X146040500Y-85268461D01*
X146040500Y-84319200D01*
X146025120Y-84167784D01*
X145964338Y-83973828D01*
X145865797Y-83796056D01*
X145733523Y-83641729D01*
X145572919Y-83517152D01*
X145567198Y-83514337D01*
X145567195Y-83514335D01*
X145435871Y-83449716D01*
X145383580Y-83401693D01*
X145365500Y-83336661D01*
X145365500Y-76165931D01*
X145385502Y-76097810D01*
X145425104Y-76058844D01*
X145442221Y-76048231D01*
X145573599Y-75966774D01*
X145721280Y-75827119D01*
X145837863Y-75660621D01*
X145918586Y-75474081D01*
X145960151Y-75275120D01*
X145960500Y-75268461D01*
X145960500Y-74319200D01*
X145945120Y-74167784D01*
X145884338Y-73973828D01*
X145785797Y-73796056D01*
X145653523Y-73641729D01*
X145492919Y-73517152D01*
X145384731Y-73463917D01*
X145334205Y-73439055D01*
X145281914Y-73391032D01*
X145263888Y-73322362D01*
X145285848Y-73254847D01*
X145340824Y-73209923D01*
X145389835Y-73200000D01*
X147075079Y-73200000D01*
X147143200Y-73220002D01*
X147189693Y-73273658D01*
X147199797Y-73343932D01*
X147170303Y-73408512D01*
X147118588Y-73444249D01*
X147059148Y-73466119D01*
X147053728Y-73469479D01*
X147053727Y-73469480D01*
X146891824Y-73569863D01*
X146891820Y-73569866D01*
X146886401Y-73573226D01*
X146738720Y-73712881D01*
X146622137Y-73879379D01*
X146541414Y-74065919D01*
X146499849Y-74264880D01*
X146499500Y-74271539D01*
X146499500Y-75220800D01*
X146514880Y-75372216D01*
X146575662Y-75566172D01*
X146674203Y-75743944D01*
X146806477Y-75898271D01*
X146967081Y-76022848D01*
X147149455Y-76112587D01*
X147160264Y-76115402D01*
X147221142Y-76151931D01*
X147252607Y-76215574D01*
X147254500Y-76237333D01*
X147254500Y-83335779D01*
X147234498Y-83403900D01*
X147180842Y-83450393D01*
X147172009Y-83454029D01*
X147139148Y-83466119D01*
X147133728Y-83469479D01*
X147133727Y-83469480D01*
X146971824Y-83569863D01*
X146971823Y-83569864D01*
X146966401Y-83573226D01*
X146818720Y-83712881D01*
X146702137Y-83879379D01*
X146621414Y-84065919D01*
X146579849Y-84264880D01*
X146579500Y-84271539D01*
X146579500Y-85220800D01*
X146594880Y-85372216D01*
X146655662Y-85566172D01*
X146754203Y-85743944D01*
X146886477Y-85898271D01*
X147047081Y-86022848D01*
X147229455Y-86112587D01*
X147235633Y-86114196D01*
X147235635Y-86114197D01*
X147419966Y-86162212D01*
X147419969Y-86162212D01*
X147426148Y-86163822D01*
X147507328Y-86168076D01*
X147622744Y-86174125D01*
X147622748Y-86174125D01*
X147629126Y-86174459D01*
X147830097Y-86144065D01*
X148020852Y-86073881D01*
X148030500Y-86067899D01*
X148188176Y-85970137D01*
X148188180Y-85970134D01*
X148193599Y-85966774D01*
X148341280Y-85827119D01*
X148457863Y-85660621D01*
X148538586Y-85474081D01*
X148580151Y-85275120D01*
X148580500Y-85268461D01*
X148580500Y-84319200D01*
X148565120Y-84167784D01*
X148504338Y-83973828D01*
X148405797Y-83796056D01*
X148273523Y-83641729D01*
X148112919Y-83517152D01*
X148107198Y-83514337D01*
X148107195Y-83514335D01*
X147975871Y-83449716D01*
X147923580Y-83401693D01*
X147905500Y-83336661D01*
X147905500Y-76165931D01*
X147925502Y-76097810D01*
X147965104Y-76058844D01*
X147982221Y-76048231D01*
X148113599Y-75966774D01*
X148261280Y-75827119D01*
X148377863Y-75660621D01*
X148458586Y-75474081D01*
X148500151Y-75275120D01*
X148500500Y-75268461D01*
X148500500Y-74319200D01*
X148485120Y-74167784D01*
X148424338Y-73973828D01*
X148325797Y-73796056D01*
X148193523Y-73641729D01*
X148032919Y-73517152D01*
X147924731Y-73463917D01*
X147874205Y-73439055D01*
X147821914Y-73391032D01*
X147803888Y-73322362D01*
X147825848Y-73254847D01*
X147880824Y-73209923D01*
X147929835Y-73200000D01*
X149615079Y-73200000D01*
X149683200Y-73220002D01*
X149729693Y-73273658D01*
X149739797Y-73343932D01*
X149710303Y-73408512D01*
X149658588Y-73444249D01*
X149599148Y-73466119D01*
X149593728Y-73469479D01*
X149593727Y-73469480D01*
X149431824Y-73569863D01*
X149431820Y-73569866D01*
X149426401Y-73573226D01*
X149278720Y-73712881D01*
X149162137Y-73879379D01*
X149081414Y-74065919D01*
X149039849Y-74264880D01*
X149039500Y-74271539D01*
X149039500Y-75220800D01*
X149054880Y-75372216D01*
X149115662Y-75566172D01*
X149214203Y-75743944D01*
X149346477Y-75898271D01*
X149507081Y-76022848D01*
X149689455Y-76112587D01*
X149700264Y-76115402D01*
X149761142Y-76151931D01*
X149792607Y-76215574D01*
X149794500Y-76237333D01*
X149794500Y-83335779D01*
X149774498Y-83403900D01*
X149720842Y-83450393D01*
X149712009Y-83454029D01*
X149679148Y-83466119D01*
X149673728Y-83469479D01*
X149673727Y-83469480D01*
X149511824Y-83569863D01*
X149511823Y-83569864D01*
X149506401Y-83573226D01*
X149358720Y-83712881D01*
X149242137Y-83879379D01*
X149161414Y-84065919D01*
X149119849Y-84264880D01*
X149119500Y-84271539D01*
X149119500Y-85220800D01*
X149134880Y-85372216D01*
X149195662Y-85566172D01*
X149294203Y-85743944D01*
X149426477Y-85898271D01*
X149587081Y-86022848D01*
X149769455Y-86112587D01*
X149775633Y-86114196D01*
X149775635Y-86114197D01*
X149959966Y-86162212D01*
X149959969Y-86162212D01*
X149966148Y-86163822D01*
X150047328Y-86168076D01*
X150162744Y-86174125D01*
X150162748Y-86174125D01*
X150169126Y-86174459D01*
X150370097Y-86144065D01*
X150560852Y-86073881D01*
X150570500Y-86067899D01*
X150728176Y-85970137D01*
X150728180Y-85970134D01*
X150733599Y-85966774D01*
X150881280Y-85827119D01*
X150997863Y-85660621D01*
X151078586Y-85474081D01*
X151120151Y-85275120D01*
X151120500Y-85268461D01*
X151120500Y-84319200D01*
X151105120Y-84167784D01*
X151044338Y-83973828D01*
X150945797Y-83796056D01*
X150813523Y-83641729D01*
X150652919Y-83517152D01*
X150647198Y-83514337D01*
X150647195Y-83514335D01*
X150515871Y-83449716D01*
X150463580Y-83401693D01*
X150445500Y-83336661D01*
X150445500Y-76165931D01*
X150465502Y-76097810D01*
X150505104Y-76058844D01*
X150522221Y-76048231D01*
X150653599Y-75966774D01*
X150801280Y-75827119D01*
X150917863Y-75660621D01*
X150998586Y-75474081D01*
X151040151Y-75275120D01*
X151040500Y-75268461D01*
X151040500Y-74319200D01*
X151025120Y-74167784D01*
X150964338Y-73973828D01*
X150865797Y-73796056D01*
X150733523Y-73641729D01*
X150572919Y-73517152D01*
X150464731Y-73463917D01*
X150414205Y-73439055D01*
X150361914Y-73391032D01*
X150343888Y-73322362D01*
X150365848Y-73254847D01*
X150420824Y-73209923D01*
X150469835Y-73200000D01*
X152155079Y-73200000D01*
X152223200Y-73220002D01*
X152269693Y-73273658D01*
X152279797Y-73343932D01*
X152250303Y-73408512D01*
X152198588Y-73444249D01*
X152139148Y-73466119D01*
X152133728Y-73469479D01*
X152133727Y-73469480D01*
X151971824Y-73569863D01*
X151971820Y-73569866D01*
X151966401Y-73573226D01*
X151818720Y-73712881D01*
X151702137Y-73879379D01*
X151621414Y-74065919D01*
X151579849Y-74264880D01*
X151579500Y-74271539D01*
X151579500Y-75220800D01*
X151594880Y-75372216D01*
X151655662Y-75566172D01*
X151754203Y-75743944D01*
X151886477Y-75898271D01*
X152047081Y-76022848D01*
X152052802Y-76025663D01*
X152052805Y-76025665D01*
X152184129Y-76090284D01*
X152236420Y-76138307D01*
X152254500Y-76203339D01*
X152254500Y-86622984D01*
X152234498Y-86691105D01*
X152217595Y-86712079D01*
X151902079Y-87027595D01*
X151839767Y-87061621D01*
X151812984Y-87064500D01*
X137159713Y-87064500D01*
X137148732Y-87064021D01*
X137122170Y-87061697D01*
X137122168Y-87061697D01*
X137111193Y-87060737D01*
X137074783Y-87070492D01*
X137064076Y-87072866D01*
X137026955Y-87079412D01*
X137017411Y-87084922D01*
X137014135Y-87086114D01*
X137010964Y-87087593D01*
X137000316Y-87090446D01*
X136991287Y-87096768D01*
X136969449Y-87112059D01*
X136960179Y-87117964D01*
X136937092Y-87131293D01*
X136937088Y-87131296D01*
X136927545Y-87136806D01*
X136920460Y-87145250D01*
X136903320Y-87165676D01*
X136895894Y-87173779D01*
X135943787Y-88125886D01*
X135935684Y-88133312D01*
X135915249Y-88150460D01*
X135906806Y-88157545D01*
X135901296Y-88167089D01*
X135901295Y-88167090D01*
X135887961Y-88190185D01*
X135882055Y-88199456D01*
X135860446Y-88230316D01*
X135857592Y-88240966D01*
X135856115Y-88244134D01*
X135854923Y-88247410D01*
X135849412Y-88256955D01*
X135847325Y-88268793D01*
X135842870Y-88294058D01*
X135840492Y-88304785D01*
X135830736Y-88341193D01*
X135831697Y-88352178D01*
X135831697Y-88352180D01*
X135834020Y-88378728D01*
X135834500Y-88389710D01*
X135834500Y-88938932D01*
X135814498Y-89007053D01*
X135760842Y-89053546D01*
X135690568Y-89063650D01*
X135625988Y-89034156D01*
X135612832Y-89020930D01*
X135554508Y-88952881D01*
X135493523Y-88881729D01*
X135481351Y-88872287D01*
X135337958Y-88761061D01*
X135332919Y-88757152D01*
X135327201Y-88754339D01*
X135327194Y-88754334D01*
X135320869Y-88751222D01*
X135268579Y-88703199D01*
X135250500Y-88638168D01*
X135250500Y-88064220D01*
X135251373Y-88049411D01*
X135254257Y-88025043D01*
X135255364Y-88015690D01*
X135253672Y-88006426D01*
X135253672Y-88006422D01*
X135244827Y-87957989D01*
X135244178Y-87954088D01*
X135236851Y-87905355D01*
X135236849Y-87905347D01*
X135235449Y-87896038D01*
X135232323Y-87889528D01*
X135231026Y-87882427D01*
X135203982Y-87830363D01*
X135202214Y-87826825D01*
X135180886Y-87782411D01*
X135176809Y-87773921D01*
X135171926Y-87768640D01*
X135171891Y-87768588D01*
X135168580Y-87762212D01*
X135164276Y-87757172D01*
X135127037Y-87719933D01*
X135123607Y-87716367D01*
X135091248Y-87681361D01*
X135084854Y-87674444D01*
X135078497Y-87670751D01*
X135072348Y-87665244D01*
X134432748Y-87025644D01*
X134422893Y-87014555D01*
X134421593Y-87012906D01*
X134401872Y-86987890D01*
X134394125Y-86982535D01*
X134394123Y-86982534D01*
X134353625Y-86954545D01*
X134350403Y-86952243D01*
X134346939Y-86949684D01*
X134303184Y-86917366D01*
X134296368Y-86914973D01*
X134290431Y-86910869D01*
X134281451Y-86908029D01*
X134281449Y-86908028D01*
X134261283Y-86901650D01*
X134234481Y-86893174D01*
X134230750Y-86891929D01*
X134184263Y-86875604D01*
X134184261Y-86875604D01*
X134175369Y-86872481D01*
X134168181Y-86872199D01*
X134168122Y-86872188D01*
X134161270Y-86870020D01*
X134154663Y-86869500D01*
X134101984Y-86869500D01*
X134097037Y-86869403D01*
X134040006Y-86867162D01*
X134032900Y-86869046D01*
X134024653Y-86869500D01*
X117798793Y-86869500D01*
X117730672Y-86849498D01*
X117709698Y-86832595D01*
X117587405Y-86710302D01*
X117553379Y-86647990D01*
X117550500Y-86621207D01*
X117550500Y-86138030D01*
X117570502Y-86069909D01*
X117610104Y-86030943D01*
X117629465Y-86018939D01*
X117713599Y-85966774D01*
X117861280Y-85827119D01*
X117977863Y-85660621D01*
X118058586Y-85474081D01*
X118100151Y-85275120D01*
X118100500Y-85268461D01*
X118100500Y-84319200D01*
X118085120Y-84167784D01*
X118024338Y-83973828D01*
X117925797Y-83796056D01*
X117793523Y-83641729D01*
X117632919Y-83517152D01*
X117627201Y-83514339D01*
X117627194Y-83514334D01*
X117620869Y-83511222D01*
X117568579Y-83463199D01*
X117550500Y-83398168D01*
X117550500Y-76088428D01*
X117570502Y-76020307D01*
X117610103Y-75981342D01*
X117633599Y-75966774D01*
X117781280Y-75827119D01*
X117897863Y-75660621D01*
X117978586Y-75474081D01*
X118020151Y-75275120D01*
X118020500Y-75268461D01*
X118020500Y-74319200D01*
X118005120Y-74167784D01*
X117944338Y-73973828D01*
X117845797Y-73796056D01*
X117713523Y-73641729D01*
X117552919Y-73517152D01*
X117444731Y-73463917D01*
X117394205Y-73439055D01*
X117341914Y-73391032D01*
X117323888Y-73322362D01*
X117345848Y-73254847D01*
X117400824Y-73209923D01*
X117449835Y-73200000D01*
X119135079Y-73200000D01*
X119203200Y-73220002D01*
G37*
%TD.AperFunction*%
%TA.AperFunction,NonConductor*%
G36*
X156672121Y-73220002D02*
G01*
X156718614Y-73273658D01*
X156730000Y-73326000D01*
X156730000Y-101444000D01*
X156709998Y-101512121D01*
X156656342Y-101558614D01*
X156604000Y-101570000D01*
X151149872Y-101570000D01*
X151081751Y-101549998D01*
X151035258Y-101496342D01*
X151025154Y-101426068D01*
X151054648Y-101361488D01*
X151055432Y-101360646D01*
X151064552Y-101354552D01*
X151108867Y-101288231D01*
X151120500Y-101229748D01*
X151120500Y-98790252D01*
X151108867Y-98731769D01*
X151064552Y-98665448D01*
X150998231Y-98621133D01*
X150986062Y-98618712D01*
X150986061Y-98618712D01*
X150945816Y-98610707D01*
X150939748Y-98609500D01*
X150571500Y-98609500D01*
X150503379Y-98589498D01*
X150456886Y-98535842D01*
X150445500Y-98483500D01*
X150445500Y-91405931D01*
X150465502Y-91337810D01*
X150505104Y-91298844D01*
X150653599Y-91206774D01*
X150801280Y-91067119D01*
X150917863Y-90900621D01*
X150998586Y-90714081D01*
X151030622Y-90560733D01*
X151064132Y-90498143D01*
X151126161Y-90463605D01*
X151153959Y-90460500D01*
X151465620Y-90460500D01*
X151533741Y-90480502D01*
X151580234Y-90534158D01*
X151590975Y-90573768D01*
X151594880Y-90612216D01*
X151655662Y-90806172D01*
X151754203Y-90983944D01*
X151886477Y-91138271D01*
X151891514Y-91142178D01*
X151891516Y-91142180D01*
X151909319Y-91155989D01*
X152047081Y-91262848D01*
X152229455Y-91352587D01*
X152235633Y-91354196D01*
X152235635Y-91354197D01*
X152419966Y-91402212D01*
X152419969Y-91402212D01*
X152426148Y-91403822D01*
X152507328Y-91408076D01*
X152622744Y-91414125D01*
X152622748Y-91414125D01*
X152629126Y-91414459D01*
X152830097Y-91384065D01*
X153020852Y-91313881D01*
X153026273Y-91310520D01*
X153188176Y-91210137D01*
X153188180Y-91210134D01*
X153193599Y-91206774D01*
X153341280Y-91067119D01*
X153457863Y-90900621D01*
X153538586Y-90714081D01*
X153570622Y-90560733D01*
X153604132Y-90498143D01*
X153666161Y-90463605D01*
X153693959Y-90460500D01*
X154005620Y-90460500D01*
X154073741Y-90480502D01*
X154120234Y-90534158D01*
X154130975Y-90573768D01*
X154134880Y-90612216D01*
X154195662Y-90806172D01*
X154294203Y-90983944D01*
X154426477Y-91138271D01*
X154431514Y-91142178D01*
X154431516Y-91142180D01*
X154449319Y-91155989D01*
X154587081Y-91262848D01*
X154769455Y-91352587D01*
X154775633Y-91354196D01*
X154775635Y-91354197D01*
X154959966Y-91402212D01*
X154959969Y-91402212D01*
X154966148Y-91403822D01*
X155047328Y-91408076D01*
X155162744Y-91414125D01*
X155162748Y-91414125D01*
X155169126Y-91414459D01*
X155370097Y-91384065D01*
X155560852Y-91313881D01*
X155566273Y-91310520D01*
X155728176Y-91210137D01*
X155728180Y-91210134D01*
X155733599Y-91206774D01*
X155881280Y-91067119D01*
X155997863Y-90900621D01*
X156078586Y-90714081D01*
X156120151Y-90515120D01*
X156120500Y-90508461D01*
X156120500Y-89559200D01*
X156105120Y-89407784D01*
X156044338Y-89213828D01*
X155945797Y-89036056D01*
X155932833Y-89020930D01*
X155878991Y-88958112D01*
X155813523Y-88881729D01*
X155801351Y-88872287D01*
X155657958Y-88761061D01*
X155652919Y-88757152D01*
X155647201Y-88754339D01*
X155647194Y-88754334D01*
X155640869Y-88751222D01*
X155588579Y-88703199D01*
X155570500Y-88638168D01*
X155570500Y-76296500D01*
X155590502Y-76228379D01*
X155644158Y-76181886D01*
X155696500Y-76170500D01*
X155939748Y-76170500D01*
X155962718Y-76165931D01*
X155986061Y-76161288D01*
X155986062Y-76161288D01*
X155998231Y-76158867D01*
X156064552Y-76114552D01*
X156108867Y-76048231D01*
X156114422Y-76020307D01*
X156119293Y-75995816D01*
X156120500Y-75989748D01*
X156120500Y-73550252D01*
X156108867Y-73491769D01*
X156064552Y-73425448D01*
X156054239Y-73418557D01*
X156050777Y-73415095D01*
X156016751Y-73352783D01*
X156021816Y-73281968D01*
X156064363Y-73225132D01*
X156130883Y-73200321D01*
X156139872Y-73200000D01*
X156604000Y-73200000D01*
X156672121Y-73220002D01*
G37*
%TD.AperFunction*%
%TA.AperFunction,NonConductor*%
G36*
X154168249Y-73220002D02*
G01*
X154214742Y-73273658D01*
X154224846Y-73343932D01*
X154195352Y-73408512D01*
X154189223Y-73415095D01*
X154185761Y-73418557D01*
X154175448Y-73425448D01*
X154131133Y-73491769D01*
X154119500Y-73550252D01*
X154119500Y-75989748D01*
X154120707Y-75995816D01*
X154125579Y-76020307D01*
X154131133Y-76048231D01*
X154175448Y-76114552D01*
X154241769Y-76158867D01*
X154253938Y-76161288D01*
X154253939Y-76161288D01*
X154277282Y-76165931D01*
X154300252Y-76170500D01*
X154543500Y-76170500D01*
X154611621Y-76190502D01*
X154658114Y-76244158D01*
X154669500Y-76296500D01*
X154669500Y-88641970D01*
X154649498Y-88710091D01*
X154609897Y-88749056D01*
X154506401Y-88813226D01*
X154501763Y-88817612D01*
X154373471Y-88938932D01*
X154358720Y-88952881D01*
X154242137Y-89119379D01*
X154161414Y-89305919D01*
X154160108Y-89312169D01*
X154160108Y-89312170D01*
X154129378Y-89459267D01*
X154095868Y-89521857D01*
X154033839Y-89556395D01*
X154006041Y-89559500D01*
X153694380Y-89559500D01*
X153626259Y-89539498D01*
X153579766Y-89485842D01*
X153569025Y-89446231D01*
X153565765Y-89414134D01*
X153565765Y-89414132D01*
X153565120Y-89407784D01*
X153504338Y-89213828D01*
X153405797Y-89036056D01*
X153392833Y-89020930D01*
X153338991Y-88958112D01*
X153273523Y-88881729D01*
X153261351Y-88872287D01*
X153117958Y-88761061D01*
X153112919Y-88757152D01*
X152930545Y-88667413D01*
X152924367Y-88665804D01*
X152924365Y-88665803D01*
X152740034Y-88617788D01*
X152740031Y-88617788D01*
X152733852Y-88616178D01*
X152652672Y-88611924D01*
X152537256Y-88605875D01*
X152537252Y-88605875D01*
X152530874Y-88605541D01*
X152329903Y-88635935D01*
X152139148Y-88706119D01*
X152133728Y-88709479D01*
X152133727Y-88709480D01*
X151971824Y-88809863D01*
X151971823Y-88809864D01*
X151966401Y-88813226D01*
X151961763Y-88817612D01*
X151833471Y-88938932D01*
X151818720Y-88952881D01*
X151702137Y-89119379D01*
X151621414Y-89305919D01*
X151620108Y-89312169D01*
X151620108Y-89312170D01*
X151589378Y-89459267D01*
X151555868Y-89521857D01*
X151493839Y-89556395D01*
X151466041Y-89559500D01*
X151154380Y-89559500D01*
X151086259Y-89539498D01*
X151039766Y-89485842D01*
X151029025Y-89446231D01*
X151025765Y-89414134D01*
X151025765Y-89414132D01*
X151025120Y-89407784D01*
X150964338Y-89213828D01*
X150865797Y-89036056D01*
X150852833Y-89020930D01*
X150798991Y-88958112D01*
X150733523Y-88881729D01*
X150721351Y-88872287D01*
X150577958Y-88761061D01*
X150572919Y-88757152D01*
X150390545Y-88667413D01*
X150384367Y-88665804D01*
X150384365Y-88665803D01*
X150200034Y-88617788D01*
X150200031Y-88617788D01*
X150193852Y-88616178D01*
X150112672Y-88611924D01*
X149997256Y-88605875D01*
X149997252Y-88605875D01*
X149990874Y-88605541D01*
X149789903Y-88635935D01*
X149599148Y-88706119D01*
X149593728Y-88709479D01*
X149593727Y-88709480D01*
X149431824Y-88809863D01*
X149431823Y-88809864D01*
X149426401Y-88813226D01*
X149421763Y-88817612D01*
X149293471Y-88938932D01*
X149278720Y-88952881D01*
X149162137Y-89119379D01*
X149081414Y-89305919D01*
X149039849Y-89504880D01*
X149039500Y-89511539D01*
X149039500Y-90460800D01*
X149054880Y-90612216D01*
X149115662Y-90806172D01*
X149214203Y-90983944D01*
X149346477Y-91138271D01*
X149351514Y-91142178D01*
X149351516Y-91142180D01*
X149369319Y-91155989D01*
X149507081Y-91262848D01*
X149689455Y-91352587D01*
X149700264Y-91355402D01*
X149761142Y-91391931D01*
X149792607Y-91455574D01*
X149794500Y-91477333D01*
X149794500Y-98483500D01*
X149774498Y-98551621D01*
X149720842Y-98598114D01*
X149668500Y-98609500D01*
X149300252Y-98609500D01*
X149294184Y-98610707D01*
X149253939Y-98618712D01*
X149253938Y-98618712D01*
X149241769Y-98621133D01*
X149175448Y-98665448D01*
X149131133Y-98731769D01*
X149119500Y-98790252D01*
X149119500Y-101229748D01*
X149131133Y-101288231D01*
X149175448Y-101354552D01*
X149181088Y-101358321D01*
X149213249Y-101417217D01*
X149208184Y-101488032D01*
X149165637Y-101544868D01*
X149099117Y-101569679D01*
X149090128Y-101570000D01*
X148032100Y-101570000D01*
X147963979Y-101549998D01*
X147917486Y-101496342D01*
X147907382Y-101426068D01*
X147936876Y-101361488D01*
X147988591Y-101325751D01*
X148020852Y-101313881D01*
X148026273Y-101310520D01*
X148188176Y-101210137D01*
X148188180Y-101210134D01*
X148193599Y-101206774D01*
X148341280Y-101067119D01*
X148457863Y-100900621D01*
X148538586Y-100714081D01*
X148580151Y-100515120D01*
X148580500Y-100508461D01*
X148580500Y-99559200D01*
X148565120Y-99407784D01*
X148504338Y-99213828D01*
X148405797Y-99036056D01*
X148273523Y-98881729D01*
X148112919Y-98757152D01*
X148107198Y-98754337D01*
X148107195Y-98754335D01*
X147975871Y-98689716D01*
X147923580Y-98641693D01*
X147905500Y-98576661D01*
X147905500Y-91405931D01*
X147925502Y-91337810D01*
X147965104Y-91298844D01*
X148113599Y-91206774D01*
X148261280Y-91067119D01*
X148377863Y-90900621D01*
X148458586Y-90714081D01*
X148500151Y-90515120D01*
X148500500Y-90508461D01*
X148500500Y-89559200D01*
X148485120Y-89407784D01*
X148424338Y-89213828D01*
X148325797Y-89036056D01*
X148312833Y-89020930D01*
X148258991Y-88958112D01*
X148193523Y-88881729D01*
X148181351Y-88872287D01*
X148037958Y-88761061D01*
X148032919Y-88757152D01*
X147850545Y-88667413D01*
X147844367Y-88665804D01*
X147844365Y-88665803D01*
X147660034Y-88617788D01*
X147660031Y-88617788D01*
X147653852Y-88616178D01*
X147572672Y-88611924D01*
X147457256Y-88605875D01*
X147457252Y-88605875D01*
X147450874Y-88605541D01*
X147249903Y-88635935D01*
X147059148Y-88706119D01*
X147053728Y-88709479D01*
X147053727Y-88709480D01*
X146891824Y-88809863D01*
X146891823Y-88809864D01*
X146886401Y-88813226D01*
X146881763Y-88817612D01*
X146753471Y-88938932D01*
X146738720Y-88952881D01*
X146622137Y-89119379D01*
X146541414Y-89305919D01*
X146499849Y-89504880D01*
X146499500Y-89511539D01*
X146499500Y-90460800D01*
X146514880Y-90612216D01*
X146575662Y-90806172D01*
X146674203Y-90983944D01*
X146806477Y-91138271D01*
X146811514Y-91142178D01*
X146811516Y-91142180D01*
X146829319Y-91155989D01*
X146967081Y-91262848D01*
X147149455Y-91352587D01*
X147160264Y-91355402D01*
X147221142Y-91391931D01*
X147252607Y-91455574D01*
X147254500Y-91477333D01*
X147254500Y-98575779D01*
X147234498Y-98643900D01*
X147180842Y-98690393D01*
X147172009Y-98694029D01*
X147139148Y-98706119D01*
X147133728Y-98709479D01*
X147133727Y-98709480D01*
X146971824Y-98809863D01*
X146971820Y-98809866D01*
X146966401Y-98813226D01*
X146818720Y-98952881D01*
X146702137Y-99119379D01*
X146621414Y-99305919D01*
X146579849Y-99504880D01*
X146579500Y-99511539D01*
X146579500Y-100460800D01*
X146594880Y-100612216D01*
X146655662Y-100806172D01*
X146754203Y-100983944D01*
X146886477Y-101138271D01*
X147047081Y-101262848D01*
X147143964Y-101310520D01*
X147185473Y-101330945D01*
X147237764Y-101378968D01*
X147255790Y-101447638D01*
X147233830Y-101515153D01*
X147178854Y-101560077D01*
X147129843Y-101570000D01*
X145492100Y-101570000D01*
X145423979Y-101549998D01*
X145377486Y-101496342D01*
X145367382Y-101426068D01*
X145396876Y-101361488D01*
X145448591Y-101325751D01*
X145480852Y-101313881D01*
X145486273Y-101310520D01*
X145648176Y-101210137D01*
X145648180Y-101210134D01*
X145653599Y-101206774D01*
X145801280Y-101067119D01*
X145917863Y-100900621D01*
X145998586Y-100714081D01*
X146040151Y-100515120D01*
X146040500Y-100508461D01*
X146040500Y-99559200D01*
X146025120Y-99407784D01*
X145964338Y-99213828D01*
X145865797Y-99036056D01*
X145733523Y-98881729D01*
X145572919Y-98757152D01*
X145567198Y-98754337D01*
X145567195Y-98754335D01*
X145435871Y-98689716D01*
X145383580Y-98641693D01*
X145365500Y-98576661D01*
X145365500Y-91405931D01*
X145385502Y-91337810D01*
X145425104Y-91298844D01*
X145573599Y-91206774D01*
X145721280Y-91067119D01*
X145837863Y-90900621D01*
X145918586Y-90714081D01*
X145960151Y-90515120D01*
X145960500Y-90508461D01*
X145960500Y-89559200D01*
X145945120Y-89407784D01*
X145884338Y-89213828D01*
X145785797Y-89036056D01*
X145772833Y-89020930D01*
X145718991Y-88958112D01*
X145653523Y-88881729D01*
X145641351Y-88872287D01*
X145497958Y-88761061D01*
X145492919Y-88757152D01*
X145310545Y-88667413D01*
X145304367Y-88665804D01*
X145304365Y-88665803D01*
X145120034Y-88617788D01*
X145120031Y-88617788D01*
X145113852Y-88616178D01*
X145032672Y-88611924D01*
X144917256Y-88605875D01*
X144917252Y-88605875D01*
X144910874Y-88605541D01*
X144709903Y-88635935D01*
X144519148Y-88706119D01*
X144513728Y-88709479D01*
X144513727Y-88709480D01*
X144351824Y-88809863D01*
X144351823Y-88809864D01*
X144346401Y-88813226D01*
X144341763Y-88817612D01*
X144213471Y-88938932D01*
X144198720Y-88952881D01*
X144082137Y-89119379D01*
X144001414Y-89305919D01*
X143959849Y-89504880D01*
X143959500Y-89511539D01*
X143959500Y-90460800D01*
X143974880Y-90612216D01*
X144035662Y-90806172D01*
X144134203Y-90983944D01*
X144266477Y-91138271D01*
X144271514Y-91142178D01*
X144271516Y-91142180D01*
X144289319Y-91155989D01*
X144427081Y-91262848D01*
X144609455Y-91352587D01*
X144620264Y-91355402D01*
X144681142Y-91391931D01*
X144712607Y-91455574D01*
X144714500Y-91477333D01*
X144714500Y-98575779D01*
X144694498Y-98643900D01*
X144640842Y-98690393D01*
X144632009Y-98694029D01*
X144599148Y-98706119D01*
X144593728Y-98709479D01*
X144593727Y-98709480D01*
X144431824Y-98809863D01*
X144431820Y-98809866D01*
X144426401Y-98813226D01*
X144278720Y-98952881D01*
X144162137Y-99119379D01*
X144081414Y-99305919D01*
X144039849Y-99504880D01*
X144039500Y-99511539D01*
X144039500Y-100460800D01*
X144054880Y-100612216D01*
X144115662Y-100806172D01*
X144214203Y-100983944D01*
X144346477Y-101138271D01*
X144507081Y-101262848D01*
X144603964Y-101310520D01*
X144645473Y-101330945D01*
X144697764Y-101378968D01*
X144715790Y-101447638D01*
X144693830Y-101515153D01*
X144638854Y-101560077D01*
X144589843Y-101570000D01*
X142952100Y-101570000D01*
X142883979Y-101549998D01*
X142837486Y-101496342D01*
X142827382Y-101426068D01*
X142856876Y-101361488D01*
X142908591Y-101325751D01*
X142940852Y-101313881D01*
X142946273Y-101310520D01*
X143108176Y-101210137D01*
X143108180Y-101210134D01*
X143113599Y-101206774D01*
X143261280Y-101067119D01*
X143377863Y-100900621D01*
X143458586Y-100714081D01*
X143500151Y-100515120D01*
X143500500Y-100508461D01*
X143500500Y-99559200D01*
X143485120Y-99407784D01*
X143424338Y-99213828D01*
X143325797Y-99036056D01*
X143193523Y-98881729D01*
X143032919Y-98757152D01*
X143027198Y-98754337D01*
X143027195Y-98754335D01*
X142895871Y-98689716D01*
X142843580Y-98641693D01*
X142825500Y-98576661D01*
X142825500Y-91405931D01*
X142845502Y-91337810D01*
X142885104Y-91298844D01*
X143033599Y-91206774D01*
X143181280Y-91067119D01*
X143297863Y-90900621D01*
X143378586Y-90714081D01*
X143420151Y-90515120D01*
X143420500Y-90508461D01*
X143420500Y-89559200D01*
X143405120Y-89407784D01*
X143344338Y-89213828D01*
X143245797Y-89036056D01*
X143232833Y-89020930D01*
X143178991Y-88958112D01*
X143113523Y-88881729D01*
X143101351Y-88872287D01*
X142957958Y-88761061D01*
X142952919Y-88757152D01*
X142770545Y-88667413D01*
X142764367Y-88665804D01*
X142764365Y-88665803D01*
X142580034Y-88617788D01*
X142580031Y-88617788D01*
X142573852Y-88616178D01*
X142492672Y-88611924D01*
X142377256Y-88605875D01*
X142377252Y-88605875D01*
X142370874Y-88605541D01*
X142169903Y-88635935D01*
X141979148Y-88706119D01*
X141973728Y-88709479D01*
X141973727Y-88709480D01*
X141811824Y-88809863D01*
X141811823Y-88809864D01*
X141806401Y-88813226D01*
X141801763Y-88817612D01*
X141673471Y-88938932D01*
X141658720Y-88952881D01*
X141542137Y-89119379D01*
X141461414Y-89305919D01*
X141419849Y-89504880D01*
X141419500Y-89511539D01*
X141419500Y-90460800D01*
X141434880Y-90612216D01*
X141495662Y-90806172D01*
X141594203Y-90983944D01*
X141726477Y-91138271D01*
X141731514Y-91142178D01*
X141731516Y-91142180D01*
X141749319Y-91155989D01*
X141887081Y-91262848D01*
X142069455Y-91352587D01*
X142080264Y-91355402D01*
X142141142Y-91391931D01*
X142172607Y-91455574D01*
X142174500Y-91477333D01*
X142174500Y-98575779D01*
X142154498Y-98643900D01*
X142100842Y-98690393D01*
X142092009Y-98694029D01*
X142059148Y-98706119D01*
X142053728Y-98709479D01*
X142053727Y-98709480D01*
X141891824Y-98809863D01*
X141891820Y-98809866D01*
X141886401Y-98813226D01*
X141738720Y-98952881D01*
X141622137Y-99119379D01*
X141541414Y-99305919D01*
X141499849Y-99504880D01*
X141499500Y-99511539D01*
X141499500Y-100460800D01*
X141514880Y-100612216D01*
X141575662Y-100806172D01*
X141674203Y-100983944D01*
X141806477Y-101138271D01*
X141967081Y-101262848D01*
X142063964Y-101310520D01*
X142105473Y-101330945D01*
X142157764Y-101378968D01*
X142175790Y-101447638D01*
X142153830Y-101515153D01*
X142098854Y-101560077D01*
X142049843Y-101570000D01*
X140412100Y-101570000D01*
X140343979Y-101549998D01*
X140297486Y-101496342D01*
X140287382Y-101426068D01*
X140316876Y-101361488D01*
X140368591Y-101325751D01*
X140400852Y-101313881D01*
X140406273Y-101310520D01*
X140568176Y-101210137D01*
X140568180Y-101210134D01*
X140573599Y-101206774D01*
X140721280Y-101067119D01*
X140837863Y-100900621D01*
X140918586Y-100714081D01*
X140960151Y-100515120D01*
X140960500Y-100508461D01*
X140960500Y-99559200D01*
X140945120Y-99407784D01*
X140884338Y-99213828D01*
X140785797Y-99036056D01*
X140653523Y-98881729D01*
X140492919Y-98757152D01*
X140487198Y-98754337D01*
X140487195Y-98754335D01*
X140355871Y-98689716D01*
X140303580Y-98641693D01*
X140285500Y-98576661D01*
X140285500Y-91405931D01*
X140305502Y-91337810D01*
X140345104Y-91298844D01*
X140493599Y-91206774D01*
X140641280Y-91067119D01*
X140757863Y-90900621D01*
X140838586Y-90714081D01*
X140880151Y-90515120D01*
X140880500Y-90508461D01*
X140880500Y-89559200D01*
X140865120Y-89407784D01*
X140804338Y-89213828D01*
X140705797Y-89036056D01*
X140692833Y-89020930D01*
X140638991Y-88958112D01*
X140573523Y-88881729D01*
X140561351Y-88872287D01*
X140417958Y-88761061D01*
X140412919Y-88757152D01*
X140230545Y-88667413D01*
X140224367Y-88665804D01*
X140224365Y-88665803D01*
X140040034Y-88617788D01*
X140040031Y-88617788D01*
X140033852Y-88616178D01*
X139952672Y-88611924D01*
X139837256Y-88605875D01*
X139837252Y-88605875D01*
X139830874Y-88605541D01*
X139629903Y-88635935D01*
X139439148Y-88706119D01*
X139433728Y-88709479D01*
X139433727Y-88709480D01*
X139271824Y-88809863D01*
X139271823Y-88809864D01*
X139266401Y-88813226D01*
X139261763Y-88817612D01*
X139133471Y-88938932D01*
X139118720Y-88952881D01*
X139002137Y-89119379D01*
X138921414Y-89305919D01*
X138879849Y-89504880D01*
X138879500Y-89511539D01*
X138879500Y-90460800D01*
X138894880Y-90612216D01*
X138955662Y-90806172D01*
X139054203Y-90983944D01*
X139186477Y-91138271D01*
X139191514Y-91142178D01*
X139191516Y-91142180D01*
X139209319Y-91155989D01*
X139347081Y-91262848D01*
X139529455Y-91352587D01*
X139540264Y-91355402D01*
X139601142Y-91391931D01*
X139632607Y-91455574D01*
X139634500Y-91477333D01*
X139634500Y-98575779D01*
X139614498Y-98643900D01*
X139560842Y-98690393D01*
X139552009Y-98694029D01*
X139519148Y-98706119D01*
X139513728Y-98709479D01*
X139513727Y-98709480D01*
X139351824Y-98809863D01*
X139351820Y-98809866D01*
X139346401Y-98813226D01*
X139198720Y-98952881D01*
X139082137Y-99119379D01*
X139001414Y-99305919D01*
X138959849Y-99504880D01*
X138959500Y-99511539D01*
X138959500Y-100460800D01*
X138974880Y-100612216D01*
X139035662Y-100806172D01*
X139134203Y-100983944D01*
X139266477Y-101138271D01*
X139427081Y-101262848D01*
X139523964Y-101310520D01*
X139565473Y-101330945D01*
X139617764Y-101378968D01*
X139635790Y-101447638D01*
X139613830Y-101515153D01*
X139558854Y-101560077D01*
X139509843Y-101570000D01*
X137872100Y-101570000D01*
X137803979Y-101549998D01*
X137757486Y-101496342D01*
X137747382Y-101426068D01*
X137776876Y-101361488D01*
X137828591Y-101325751D01*
X137860852Y-101313881D01*
X137866273Y-101310520D01*
X138028176Y-101210137D01*
X138028180Y-101210134D01*
X138033599Y-101206774D01*
X138181280Y-101067119D01*
X138297863Y-100900621D01*
X138378586Y-100714081D01*
X138420151Y-100515120D01*
X138420500Y-100508461D01*
X138420500Y-99559200D01*
X138405120Y-99407784D01*
X138344338Y-99213828D01*
X138245797Y-99036056D01*
X138113523Y-98881729D01*
X137952919Y-98757152D01*
X137947198Y-98754337D01*
X137947195Y-98754335D01*
X137815871Y-98689716D01*
X137763580Y-98641693D01*
X137745500Y-98576661D01*
X137745500Y-91405931D01*
X137765502Y-91337810D01*
X137805104Y-91298844D01*
X137953599Y-91206774D01*
X138101280Y-91067119D01*
X138217863Y-90900621D01*
X138298586Y-90714081D01*
X138340151Y-90515120D01*
X138340500Y-90508461D01*
X138340500Y-89559200D01*
X138325120Y-89407784D01*
X138264338Y-89213828D01*
X138165797Y-89036056D01*
X138152833Y-89020930D01*
X138098991Y-88958112D01*
X138033523Y-88881729D01*
X138021351Y-88872287D01*
X137877958Y-88761061D01*
X137872919Y-88757152D01*
X137690545Y-88667413D01*
X137684367Y-88665804D01*
X137684365Y-88665803D01*
X137500034Y-88617788D01*
X137500031Y-88617788D01*
X137493852Y-88616178D01*
X137412672Y-88611924D01*
X137297256Y-88605875D01*
X137297252Y-88605875D01*
X137290874Y-88605541D01*
X137089903Y-88635935D01*
X136899148Y-88706119D01*
X136893728Y-88709479D01*
X136893727Y-88709480D01*
X136731824Y-88809863D01*
X136731823Y-88809864D01*
X136726401Y-88813226D01*
X136721763Y-88817612D01*
X136698072Y-88840015D01*
X136634834Y-88872287D01*
X136564187Y-88865246D01*
X136508562Y-88821128D01*
X136485500Y-88748466D01*
X136485500Y-88557017D01*
X136505502Y-88488896D01*
X136522405Y-88467921D01*
X137237923Y-87752404D01*
X137300235Y-87718379D01*
X137327018Y-87715500D01*
X151980290Y-87715500D01*
X151991272Y-87715980D01*
X152017820Y-87718303D01*
X152017822Y-87718303D01*
X152028807Y-87719264D01*
X152065215Y-87709508D01*
X152075942Y-87707130D01*
X152079301Y-87706538D01*
X152113045Y-87700588D01*
X152122590Y-87695077D01*
X152125866Y-87693885D01*
X152129034Y-87692408D01*
X152139684Y-87689554D01*
X152170544Y-87667945D01*
X152179815Y-87662039D01*
X152202906Y-87648707D01*
X152212455Y-87643194D01*
X152236685Y-87614317D01*
X152244111Y-87606215D01*
X152796215Y-87054111D01*
X152804319Y-87046684D01*
X152824749Y-87029541D01*
X152833194Y-87022455D01*
X152841786Y-87007573D01*
X152852039Y-86989815D01*
X152857945Y-86980544D01*
X152873230Y-86958715D01*
X152879554Y-86949684D01*
X152882408Y-86939034D01*
X152883885Y-86935866D01*
X152885077Y-86932590D01*
X152890588Y-86923045D01*
X152897130Y-86885942D01*
X152899509Y-86875210D01*
X152900065Y-86873135D01*
X152909264Y-86838807D01*
X152908125Y-86825780D01*
X152905979Y-86801257D01*
X152905500Y-86790276D01*
X152905500Y-76204221D01*
X152925502Y-76136100D01*
X152979158Y-76089607D01*
X152987992Y-76085971D01*
X153020852Y-76073881D01*
X153030107Y-76068143D01*
X153188176Y-75970137D01*
X153188180Y-75970134D01*
X153193599Y-75966774D01*
X153341280Y-75827119D01*
X153457863Y-75660621D01*
X153538586Y-75474081D01*
X153580151Y-75275120D01*
X153580500Y-75268461D01*
X153580500Y-74319200D01*
X153565120Y-74167784D01*
X153504338Y-73973828D01*
X153405797Y-73796056D01*
X153273523Y-73641729D01*
X153112919Y-73517152D01*
X153004731Y-73463917D01*
X152954205Y-73439055D01*
X152901914Y-73391032D01*
X152883888Y-73322362D01*
X152905848Y-73254847D01*
X152960824Y-73209923D01*
X153009835Y-73200000D01*
X154100128Y-73200000D01*
X154168249Y-73220002D01*
G37*
%TD.AperFunction*%
%TA.AperFunction,NonConductor*%
G36*
X136688727Y-91171043D02*
G01*
X136807081Y-91262848D01*
X136989455Y-91352587D01*
X137000264Y-91355402D01*
X137061142Y-91391931D01*
X137092607Y-91455574D01*
X137094500Y-91477333D01*
X137094500Y-98575779D01*
X137074498Y-98643900D01*
X137020842Y-98690393D01*
X137012009Y-98694029D01*
X136979148Y-98706119D01*
X136973728Y-98709479D01*
X136973727Y-98709480D01*
X136811824Y-98809863D01*
X136811820Y-98809866D01*
X136806401Y-98813226D01*
X136658720Y-98952881D01*
X136542137Y-99119379D01*
X136461414Y-99305919D01*
X136419849Y-99504880D01*
X136419500Y-99511539D01*
X136419500Y-100460800D01*
X136434880Y-100612216D01*
X136495662Y-100806172D01*
X136594203Y-100983944D01*
X136726477Y-101138271D01*
X136887081Y-101262848D01*
X136983964Y-101310520D01*
X137025473Y-101330945D01*
X137077764Y-101378968D01*
X137095790Y-101447638D01*
X137073830Y-101515153D01*
X137018854Y-101560077D01*
X136969843Y-101570000D01*
X135332100Y-101570000D01*
X135263979Y-101549998D01*
X135217486Y-101496342D01*
X135207382Y-101426068D01*
X135236876Y-101361488D01*
X135288591Y-101325751D01*
X135320852Y-101313881D01*
X135326273Y-101310520D01*
X135488176Y-101210137D01*
X135488180Y-101210134D01*
X135493599Y-101206774D01*
X135641280Y-101067119D01*
X135757863Y-100900621D01*
X135838586Y-100714081D01*
X135880151Y-100515120D01*
X135880500Y-100508461D01*
X135880500Y-99559200D01*
X135865120Y-99407784D01*
X135804338Y-99213828D01*
X135705797Y-99036056D01*
X135573523Y-98881729D01*
X135412919Y-98757152D01*
X135407198Y-98754337D01*
X135407195Y-98754335D01*
X135275871Y-98689716D01*
X135223580Y-98641693D01*
X135205500Y-98576661D01*
X135205500Y-93057016D01*
X135225502Y-92988895D01*
X135242405Y-92967921D01*
X136376222Y-91834105D01*
X136384326Y-91826678D01*
X136404750Y-91809540D01*
X136413194Y-91802455D01*
X136418704Y-91792912D01*
X136418707Y-91792908D01*
X136432036Y-91769821D01*
X136437941Y-91760551D01*
X136453232Y-91738713D01*
X136459554Y-91729684D01*
X136462407Y-91719036D01*
X136463886Y-91715865D01*
X136465078Y-91712589D01*
X136470588Y-91703045D01*
X136477134Y-91665924D01*
X136479508Y-91655217D01*
X136489263Y-91618807D01*
X136485979Y-91581269D01*
X136485500Y-91570288D01*
X136485500Y-91270603D01*
X136505502Y-91202482D01*
X136559158Y-91155989D01*
X136629432Y-91145885D01*
X136688727Y-91171043D01*
G37*
%TD.AperFunction*%
%TA.AperFunction,NonConductor*%
G36*
X116663200Y-73220002D02*
G01*
X116709693Y-73273658D01*
X116719797Y-73343932D01*
X116690303Y-73408512D01*
X116638588Y-73444249D01*
X116579148Y-73466119D01*
X116573728Y-73469479D01*
X116573727Y-73469480D01*
X116411824Y-73569863D01*
X116411820Y-73569866D01*
X116406401Y-73573226D01*
X116258720Y-73712881D01*
X116142137Y-73879379D01*
X116061414Y-74065919D01*
X116019849Y-74264880D01*
X116019500Y-74271539D01*
X116019500Y-75220800D01*
X116034880Y-75372216D01*
X116095662Y-75566172D01*
X116194203Y-75743944D01*
X116326477Y-75898271D01*
X116487081Y-76022848D01*
X116492798Y-76025661D01*
X116492809Y-76025668D01*
X116579130Y-76068143D01*
X116631421Y-76116165D01*
X116649500Y-76181197D01*
X116649500Y-83401970D01*
X116629498Y-83470091D01*
X116589897Y-83509056D01*
X116486401Y-83573226D01*
X116338720Y-83712881D01*
X116222137Y-83879379D01*
X116141414Y-84065919D01*
X116099849Y-84264880D01*
X116099500Y-84271539D01*
X116099500Y-85220800D01*
X116114880Y-85372216D01*
X116175662Y-85566172D01*
X116274203Y-85743944D01*
X116406477Y-85898271D01*
X116567081Y-86022848D01*
X116572799Y-86025661D01*
X116572806Y-86025666D01*
X116579131Y-86028778D01*
X116631421Y-86076801D01*
X116649500Y-86141832D01*
X116649500Y-86825780D01*
X116648627Y-86840589D01*
X116644636Y-86874310D01*
X116646328Y-86883574D01*
X116646328Y-86883575D01*
X116655172Y-86932001D01*
X116655816Y-86935866D01*
X116664551Y-86993962D01*
X116667679Y-87000475D01*
X116668975Y-87007573D01*
X116696025Y-87059647D01*
X116697768Y-87063137D01*
X116723191Y-87116079D01*
X116728077Y-87121365D01*
X116728110Y-87121413D01*
X116731421Y-87127788D01*
X116735725Y-87132828D01*
X116772952Y-87170055D01*
X116776381Y-87173620D01*
X116815146Y-87215556D01*
X116821505Y-87219249D01*
X116827663Y-87224766D01*
X117217247Y-87614350D01*
X117227101Y-87625439D01*
X117241099Y-87643194D01*
X117248128Y-87652110D01*
X117255875Y-87657465D01*
X117255877Y-87657466D01*
X117273815Y-87669863D01*
X117293156Y-87683230D01*
X117296375Y-87685455D01*
X117299587Y-87687750D01*
X117346816Y-87722634D01*
X117353632Y-87725027D01*
X117359569Y-87729131D01*
X117368549Y-87731971D01*
X117368551Y-87731972D01*
X117388717Y-87738350D01*
X117415519Y-87746826D01*
X117419250Y-87748071D01*
X117465737Y-87764396D01*
X117465739Y-87764396D01*
X117474631Y-87767519D01*
X117481819Y-87767801D01*
X117481878Y-87767812D01*
X117488730Y-87769980D01*
X117495337Y-87770500D01*
X117548016Y-87770500D01*
X117552962Y-87770597D01*
X117609994Y-87772838D01*
X117617100Y-87770954D01*
X117625344Y-87770500D01*
X133851207Y-87770500D01*
X133919328Y-87790502D01*
X133940302Y-87807405D01*
X134312595Y-88179698D01*
X134346621Y-88242010D01*
X134349500Y-88268793D01*
X134349500Y-88641970D01*
X134329498Y-88710091D01*
X134289897Y-88749056D01*
X134186401Y-88813226D01*
X134181763Y-88817612D01*
X134053471Y-88938932D01*
X134038720Y-88952881D01*
X133922137Y-89119379D01*
X133841414Y-89305919D01*
X133799849Y-89504880D01*
X133799500Y-89511539D01*
X133799500Y-90460800D01*
X133814880Y-90612216D01*
X133875662Y-90806172D01*
X133974203Y-90983944D01*
X134106477Y-91138271D01*
X134111514Y-91142178D01*
X134111516Y-91142180D01*
X134129319Y-91155989D01*
X134267081Y-91262848D01*
X134449455Y-91352587D01*
X134455633Y-91354196D01*
X134455635Y-91354197D01*
X134639966Y-91402212D01*
X134639969Y-91402212D01*
X134646148Y-91403822D01*
X134727328Y-91408076D01*
X134842744Y-91414125D01*
X134842748Y-91414125D01*
X134849126Y-91414459D01*
X135050097Y-91384065D01*
X135240852Y-91313881D01*
X135246273Y-91310520D01*
X135408176Y-91210137D01*
X135408180Y-91210134D01*
X135413599Y-91206774D01*
X135561280Y-91067119D01*
X135605287Y-91004271D01*
X135660744Y-90959942D01*
X135731363Y-90952633D01*
X135794723Y-90984663D01*
X135830709Y-91045864D01*
X135834500Y-91076541D01*
X135834500Y-91402983D01*
X135814498Y-91471104D01*
X135797595Y-91492078D01*
X134663784Y-92625890D01*
X134655681Y-92633316D01*
X134626806Y-92657545D01*
X134621293Y-92667094D01*
X134607961Y-92690185D01*
X134602055Y-92699456D01*
X134580446Y-92730316D01*
X134577592Y-92740966D01*
X134576115Y-92744134D01*
X134574923Y-92747410D01*
X134569412Y-92756955D01*
X134563462Y-92790699D01*
X134562870Y-92794058D01*
X134560492Y-92804785D01*
X134550736Y-92841193D01*
X134551697Y-92852178D01*
X134551697Y-92852180D01*
X134554020Y-92878728D01*
X134554500Y-92889710D01*
X134554500Y-98575779D01*
X134534498Y-98643900D01*
X134480842Y-98690393D01*
X134472009Y-98694029D01*
X134439148Y-98706119D01*
X134433728Y-98709479D01*
X134433727Y-98709480D01*
X134271824Y-98809863D01*
X134271820Y-98809866D01*
X134266401Y-98813226D01*
X134118720Y-98952881D01*
X134002137Y-99119379D01*
X133921414Y-99305919D01*
X133879849Y-99504880D01*
X133879500Y-99511539D01*
X133879500Y-100460800D01*
X133894880Y-100612216D01*
X133955662Y-100806172D01*
X134054203Y-100983944D01*
X134186477Y-101138271D01*
X134347081Y-101262848D01*
X134443964Y-101310520D01*
X134485473Y-101330945D01*
X134537764Y-101378968D01*
X134555790Y-101447638D01*
X134533830Y-101515153D01*
X134478854Y-101560077D01*
X134429843Y-101570000D01*
X132792100Y-101570000D01*
X132723979Y-101549998D01*
X132677486Y-101496342D01*
X132667382Y-101426068D01*
X132696876Y-101361488D01*
X132748591Y-101325751D01*
X132780852Y-101313881D01*
X132786273Y-101310520D01*
X132948176Y-101210137D01*
X132948180Y-101210134D01*
X132953599Y-101206774D01*
X133101280Y-101067119D01*
X133217863Y-100900621D01*
X133298586Y-100714081D01*
X133340151Y-100515120D01*
X133340500Y-100508461D01*
X133340500Y-99559200D01*
X133325120Y-99407784D01*
X133264338Y-99213828D01*
X133165797Y-99036056D01*
X133033523Y-98881729D01*
X132872919Y-98757152D01*
X132867198Y-98754337D01*
X132867195Y-98754335D01*
X132735871Y-98689716D01*
X132683580Y-98641693D01*
X132665500Y-98576661D01*
X132665500Y-91405931D01*
X132685502Y-91337810D01*
X132725104Y-91298844D01*
X132873599Y-91206774D01*
X133021280Y-91067119D01*
X133137863Y-90900621D01*
X133218586Y-90714081D01*
X133260151Y-90515120D01*
X133260500Y-90508461D01*
X133260500Y-89559200D01*
X133245120Y-89407784D01*
X133184338Y-89213828D01*
X133085797Y-89036056D01*
X133072833Y-89020930D01*
X133018991Y-88958112D01*
X132953523Y-88881729D01*
X132941351Y-88872287D01*
X132797958Y-88761061D01*
X132792919Y-88757152D01*
X132610545Y-88667413D01*
X132604367Y-88665804D01*
X132604365Y-88665803D01*
X132420034Y-88617788D01*
X132420031Y-88617788D01*
X132413852Y-88616178D01*
X132332672Y-88611924D01*
X132217256Y-88605875D01*
X132217252Y-88605875D01*
X132210874Y-88605541D01*
X132009903Y-88635935D01*
X131819148Y-88706119D01*
X131813728Y-88709479D01*
X131813727Y-88709480D01*
X131651824Y-88809863D01*
X131651823Y-88809864D01*
X131646401Y-88813226D01*
X131641763Y-88817612D01*
X131513471Y-88938932D01*
X131498720Y-88952881D01*
X131382137Y-89119379D01*
X131301414Y-89305919D01*
X131259849Y-89504880D01*
X131259500Y-89511539D01*
X131259500Y-90460800D01*
X131274880Y-90612216D01*
X131335662Y-90806172D01*
X131434203Y-90983944D01*
X131566477Y-91138271D01*
X131571514Y-91142178D01*
X131571516Y-91142180D01*
X131589319Y-91155989D01*
X131727081Y-91262848D01*
X131909455Y-91352587D01*
X131920264Y-91355402D01*
X131981142Y-91391931D01*
X132012607Y-91455574D01*
X132014500Y-91477333D01*
X132014500Y-98575779D01*
X131994498Y-98643900D01*
X131940842Y-98690393D01*
X131932009Y-98694029D01*
X131899148Y-98706119D01*
X131893728Y-98709479D01*
X131893727Y-98709480D01*
X131731824Y-98809863D01*
X131731820Y-98809866D01*
X131726401Y-98813226D01*
X131578720Y-98952881D01*
X131462137Y-99119379D01*
X131381414Y-99305919D01*
X131339849Y-99504880D01*
X131339500Y-99511539D01*
X131339500Y-100460800D01*
X131354880Y-100612216D01*
X131415662Y-100806172D01*
X131514203Y-100983944D01*
X131646477Y-101138271D01*
X131807081Y-101262848D01*
X131903964Y-101310520D01*
X131945473Y-101330945D01*
X131997764Y-101378968D01*
X132015790Y-101447638D01*
X131993830Y-101515153D01*
X131938854Y-101560077D01*
X131889843Y-101570000D01*
X130252100Y-101570000D01*
X130183979Y-101549998D01*
X130137486Y-101496342D01*
X130127382Y-101426068D01*
X130156876Y-101361488D01*
X130208591Y-101325751D01*
X130240852Y-101313881D01*
X130246273Y-101310520D01*
X130408176Y-101210137D01*
X130408180Y-101210134D01*
X130413599Y-101206774D01*
X130561280Y-101067119D01*
X130677863Y-100900621D01*
X130758586Y-100714081D01*
X130800151Y-100515120D01*
X130800500Y-100508461D01*
X130800500Y-99559200D01*
X130785120Y-99407784D01*
X130724338Y-99213828D01*
X130625797Y-99036056D01*
X130493523Y-98881729D01*
X130332919Y-98757152D01*
X130327198Y-98754337D01*
X130327195Y-98754335D01*
X130195871Y-98689716D01*
X130143580Y-98641693D01*
X130125500Y-98576661D01*
X130125500Y-91405931D01*
X130145502Y-91337810D01*
X130185104Y-91298844D01*
X130333599Y-91206774D01*
X130481280Y-91067119D01*
X130597863Y-90900621D01*
X130678586Y-90714081D01*
X130720151Y-90515120D01*
X130720500Y-90508461D01*
X130720500Y-89559200D01*
X130705120Y-89407784D01*
X130644338Y-89213828D01*
X130545797Y-89036056D01*
X130532833Y-89020930D01*
X130478991Y-88958112D01*
X130413523Y-88881729D01*
X130401351Y-88872287D01*
X130257958Y-88761061D01*
X130252919Y-88757152D01*
X130070545Y-88667413D01*
X130064367Y-88665804D01*
X130064365Y-88665803D01*
X129880034Y-88617788D01*
X129880031Y-88617788D01*
X129873852Y-88616178D01*
X129792672Y-88611924D01*
X129677256Y-88605875D01*
X129677252Y-88605875D01*
X129670874Y-88605541D01*
X129469903Y-88635935D01*
X129279148Y-88706119D01*
X129273728Y-88709479D01*
X129273727Y-88709480D01*
X129111824Y-88809863D01*
X129111823Y-88809864D01*
X129106401Y-88813226D01*
X129101763Y-88817612D01*
X128973471Y-88938932D01*
X128958720Y-88952881D01*
X128842137Y-89119379D01*
X128761414Y-89305919D01*
X128719849Y-89504880D01*
X128719500Y-89511539D01*
X128719500Y-90460800D01*
X128734880Y-90612216D01*
X128795662Y-90806172D01*
X128894203Y-90983944D01*
X129026477Y-91138271D01*
X129031514Y-91142178D01*
X129031516Y-91142180D01*
X129049319Y-91155989D01*
X129187081Y-91262848D01*
X129369455Y-91352587D01*
X129380264Y-91355402D01*
X129441142Y-91391931D01*
X129472607Y-91455574D01*
X129474500Y-91477333D01*
X129474500Y-98575779D01*
X129454498Y-98643900D01*
X129400842Y-98690393D01*
X129392009Y-98694029D01*
X129359148Y-98706119D01*
X129353728Y-98709479D01*
X129353727Y-98709480D01*
X129191824Y-98809863D01*
X129191820Y-98809866D01*
X129186401Y-98813226D01*
X129038720Y-98952881D01*
X128922137Y-99119379D01*
X128841414Y-99305919D01*
X128799849Y-99504880D01*
X128799500Y-99511539D01*
X128799500Y-100460800D01*
X128814880Y-100612216D01*
X128875662Y-100806172D01*
X128974203Y-100983944D01*
X129106477Y-101138271D01*
X129267081Y-101262848D01*
X129363964Y-101310520D01*
X129405473Y-101330945D01*
X129457764Y-101378968D01*
X129475790Y-101447638D01*
X129453830Y-101515153D01*
X129398854Y-101560077D01*
X129349843Y-101570000D01*
X127712100Y-101570000D01*
X127643979Y-101549998D01*
X127597486Y-101496342D01*
X127587382Y-101426068D01*
X127616876Y-101361488D01*
X127668591Y-101325751D01*
X127700852Y-101313881D01*
X127706273Y-101310520D01*
X127868176Y-101210137D01*
X127868180Y-101210134D01*
X127873599Y-101206774D01*
X128021280Y-101067119D01*
X128137863Y-100900621D01*
X128218586Y-100714081D01*
X128260151Y-100515120D01*
X128260500Y-100508461D01*
X128260500Y-99559200D01*
X128245120Y-99407784D01*
X128184338Y-99213828D01*
X128085797Y-99036056D01*
X127953523Y-98881729D01*
X127792919Y-98757152D01*
X127787198Y-98754337D01*
X127787195Y-98754335D01*
X127655871Y-98689716D01*
X127603580Y-98641693D01*
X127585500Y-98576661D01*
X127585500Y-91405931D01*
X127605502Y-91337810D01*
X127645104Y-91298844D01*
X127793599Y-91206774D01*
X127941280Y-91067119D01*
X128057863Y-90900621D01*
X128138586Y-90714081D01*
X128180151Y-90515120D01*
X128180500Y-90508461D01*
X128180500Y-89559200D01*
X128165120Y-89407784D01*
X128104338Y-89213828D01*
X128005797Y-89036056D01*
X127992833Y-89020930D01*
X127938991Y-88958112D01*
X127873523Y-88881729D01*
X127861351Y-88872287D01*
X127717958Y-88761061D01*
X127712919Y-88757152D01*
X127530545Y-88667413D01*
X127524367Y-88665804D01*
X127524365Y-88665803D01*
X127340034Y-88617788D01*
X127340031Y-88617788D01*
X127333852Y-88616178D01*
X127252672Y-88611924D01*
X127137256Y-88605875D01*
X127137252Y-88605875D01*
X127130874Y-88605541D01*
X126929903Y-88635935D01*
X126739148Y-88706119D01*
X126733728Y-88709479D01*
X126733727Y-88709480D01*
X126571824Y-88809863D01*
X126571823Y-88809864D01*
X126566401Y-88813226D01*
X126561763Y-88817612D01*
X126433471Y-88938932D01*
X126418720Y-88952881D01*
X126302137Y-89119379D01*
X126221414Y-89305919D01*
X126179849Y-89504880D01*
X126179500Y-89511539D01*
X126179500Y-90460800D01*
X126194880Y-90612216D01*
X126255662Y-90806172D01*
X126354203Y-90983944D01*
X126486477Y-91138271D01*
X126491514Y-91142178D01*
X126491516Y-91142180D01*
X126509319Y-91155989D01*
X126647081Y-91262848D01*
X126829455Y-91352587D01*
X126840264Y-91355402D01*
X126901142Y-91391931D01*
X126932607Y-91455574D01*
X126934500Y-91477333D01*
X126934500Y-98575779D01*
X126914498Y-98643900D01*
X126860842Y-98690393D01*
X126852009Y-98694029D01*
X126819148Y-98706119D01*
X126813728Y-98709479D01*
X126813727Y-98709480D01*
X126651824Y-98809863D01*
X126651820Y-98809866D01*
X126646401Y-98813226D01*
X126498720Y-98952881D01*
X126382137Y-99119379D01*
X126301414Y-99305919D01*
X126259849Y-99504880D01*
X126259500Y-99511539D01*
X126259500Y-100460800D01*
X126274880Y-100612216D01*
X126335662Y-100806172D01*
X126434203Y-100983944D01*
X126566477Y-101138271D01*
X126727081Y-101262848D01*
X126823964Y-101310520D01*
X126865473Y-101330945D01*
X126917764Y-101378968D01*
X126935790Y-101447638D01*
X126913830Y-101515153D01*
X126858854Y-101560077D01*
X126809843Y-101570000D01*
X125172100Y-101570000D01*
X125103979Y-101549998D01*
X125057486Y-101496342D01*
X125047382Y-101426068D01*
X125076876Y-101361488D01*
X125128591Y-101325751D01*
X125160852Y-101313881D01*
X125166273Y-101310520D01*
X125328176Y-101210137D01*
X125328180Y-101210134D01*
X125333599Y-101206774D01*
X125481280Y-101067119D01*
X125597863Y-100900621D01*
X125678586Y-100714081D01*
X125720151Y-100515120D01*
X125720500Y-100508461D01*
X125720500Y-99559200D01*
X125705120Y-99407784D01*
X125644338Y-99213828D01*
X125545797Y-99036056D01*
X125413523Y-98881729D01*
X125252919Y-98757152D01*
X125247198Y-98754337D01*
X125247195Y-98754335D01*
X125115871Y-98689716D01*
X125063580Y-98641693D01*
X125045500Y-98576661D01*
X125045500Y-91405931D01*
X125065502Y-91337810D01*
X125105104Y-91298844D01*
X125253599Y-91206774D01*
X125401280Y-91067119D01*
X125517863Y-90900621D01*
X125598586Y-90714081D01*
X125640151Y-90515120D01*
X125640500Y-90508461D01*
X125640500Y-89559200D01*
X125625120Y-89407784D01*
X125564338Y-89213828D01*
X125465797Y-89036056D01*
X125452833Y-89020930D01*
X125398991Y-88958112D01*
X125333523Y-88881729D01*
X125321351Y-88872287D01*
X125177958Y-88761061D01*
X125172919Y-88757152D01*
X124990545Y-88667413D01*
X124984367Y-88665804D01*
X124984365Y-88665803D01*
X124800034Y-88617788D01*
X124800031Y-88617788D01*
X124793852Y-88616178D01*
X124712672Y-88611924D01*
X124597256Y-88605875D01*
X124597252Y-88605875D01*
X124590874Y-88605541D01*
X124389903Y-88635935D01*
X124199148Y-88706119D01*
X124193728Y-88709479D01*
X124193727Y-88709480D01*
X124031824Y-88809863D01*
X124031823Y-88809864D01*
X124026401Y-88813226D01*
X124021763Y-88817612D01*
X123893471Y-88938932D01*
X123878720Y-88952881D01*
X123762137Y-89119379D01*
X123681414Y-89305919D01*
X123639849Y-89504880D01*
X123639500Y-89511539D01*
X123639500Y-90460800D01*
X123654880Y-90612216D01*
X123715662Y-90806172D01*
X123814203Y-90983944D01*
X123946477Y-91138271D01*
X123951514Y-91142178D01*
X123951516Y-91142180D01*
X123969319Y-91155989D01*
X124107081Y-91262848D01*
X124289455Y-91352587D01*
X124300264Y-91355402D01*
X124361142Y-91391931D01*
X124392607Y-91455574D01*
X124394500Y-91477333D01*
X124394500Y-98575779D01*
X124374498Y-98643900D01*
X124320842Y-98690393D01*
X124312009Y-98694029D01*
X124279148Y-98706119D01*
X124273728Y-98709479D01*
X124273727Y-98709480D01*
X124111824Y-98809863D01*
X124111820Y-98809866D01*
X124106401Y-98813226D01*
X123958720Y-98952881D01*
X123842137Y-99119379D01*
X123761414Y-99305919D01*
X123719849Y-99504880D01*
X123719500Y-99511539D01*
X123719500Y-100460800D01*
X123734880Y-100612216D01*
X123795662Y-100806172D01*
X123894203Y-100983944D01*
X124026477Y-101138271D01*
X124187081Y-101262848D01*
X124283964Y-101310520D01*
X124325473Y-101330945D01*
X124377764Y-101378968D01*
X124395790Y-101447638D01*
X124373830Y-101515153D01*
X124318854Y-101560077D01*
X124269843Y-101570000D01*
X122632100Y-101570000D01*
X122563979Y-101549998D01*
X122517486Y-101496342D01*
X122507382Y-101426068D01*
X122536876Y-101361488D01*
X122588591Y-101325751D01*
X122620852Y-101313881D01*
X122626273Y-101310520D01*
X122788176Y-101210137D01*
X122788180Y-101210134D01*
X122793599Y-101206774D01*
X122941280Y-101067119D01*
X123057863Y-100900621D01*
X123138586Y-100714081D01*
X123180151Y-100515120D01*
X123180500Y-100508461D01*
X123180500Y-99559200D01*
X123165120Y-99407784D01*
X123104338Y-99213828D01*
X123005797Y-99036056D01*
X122873523Y-98881729D01*
X122712919Y-98757152D01*
X122707198Y-98754337D01*
X122707195Y-98754335D01*
X122575871Y-98689716D01*
X122523580Y-98641693D01*
X122505500Y-98576661D01*
X122505500Y-91405931D01*
X122525502Y-91337810D01*
X122565104Y-91298844D01*
X122713599Y-91206774D01*
X122861280Y-91067119D01*
X122977863Y-90900621D01*
X123058586Y-90714081D01*
X123100151Y-90515120D01*
X123100500Y-90508461D01*
X123100500Y-89559200D01*
X123085120Y-89407784D01*
X123024338Y-89213828D01*
X122925797Y-89036056D01*
X122912833Y-89020930D01*
X122858991Y-88958112D01*
X122793523Y-88881729D01*
X122781351Y-88872287D01*
X122637958Y-88761061D01*
X122632919Y-88757152D01*
X122450545Y-88667413D01*
X122444367Y-88665804D01*
X122444365Y-88665803D01*
X122260034Y-88617788D01*
X122260031Y-88617788D01*
X122253852Y-88616178D01*
X122172672Y-88611924D01*
X122057256Y-88605875D01*
X122057252Y-88605875D01*
X122050874Y-88605541D01*
X121849903Y-88635935D01*
X121659148Y-88706119D01*
X121653728Y-88709479D01*
X121653727Y-88709480D01*
X121491824Y-88809863D01*
X121491823Y-88809864D01*
X121486401Y-88813226D01*
X121481763Y-88817612D01*
X121353471Y-88938932D01*
X121338720Y-88952881D01*
X121222137Y-89119379D01*
X121141414Y-89305919D01*
X121099849Y-89504880D01*
X121099500Y-89511539D01*
X121099500Y-90460800D01*
X121114880Y-90612216D01*
X121175662Y-90806172D01*
X121274203Y-90983944D01*
X121406477Y-91138271D01*
X121411514Y-91142178D01*
X121411516Y-91142180D01*
X121429319Y-91155989D01*
X121567081Y-91262848D01*
X121749455Y-91352587D01*
X121760264Y-91355402D01*
X121821142Y-91391931D01*
X121852607Y-91455574D01*
X121854500Y-91477333D01*
X121854500Y-98575779D01*
X121834498Y-98643900D01*
X121780842Y-98690393D01*
X121772009Y-98694029D01*
X121739148Y-98706119D01*
X121733728Y-98709479D01*
X121733727Y-98709480D01*
X121571824Y-98809863D01*
X121571820Y-98809866D01*
X121566401Y-98813226D01*
X121418720Y-98952881D01*
X121302137Y-99119379D01*
X121221414Y-99305919D01*
X121179849Y-99504880D01*
X121179500Y-99511539D01*
X121179500Y-100460800D01*
X121194880Y-100612216D01*
X121255662Y-100806172D01*
X121354203Y-100983944D01*
X121486477Y-101138271D01*
X121647081Y-101262848D01*
X121743964Y-101310520D01*
X121785473Y-101330945D01*
X121837764Y-101378968D01*
X121855790Y-101447638D01*
X121833830Y-101515153D01*
X121778854Y-101560077D01*
X121729843Y-101570000D01*
X120092100Y-101570000D01*
X120023979Y-101549998D01*
X119977486Y-101496342D01*
X119967382Y-101426068D01*
X119996876Y-101361488D01*
X120048591Y-101325751D01*
X120080852Y-101313881D01*
X120086273Y-101310520D01*
X120248176Y-101210137D01*
X120248180Y-101210134D01*
X120253599Y-101206774D01*
X120401280Y-101067119D01*
X120517863Y-100900621D01*
X120598586Y-100714081D01*
X120640151Y-100515120D01*
X120640500Y-100508461D01*
X120640500Y-99559200D01*
X120625120Y-99407784D01*
X120564338Y-99213828D01*
X120465797Y-99036056D01*
X120333523Y-98881729D01*
X120172919Y-98757152D01*
X120167198Y-98754337D01*
X120167195Y-98754335D01*
X120035871Y-98689716D01*
X119983580Y-98641693D01*
X119965500Y-98576661D01*
X119965500Y-91405931D01*
X119985502Y-91337810D01*
X120025104Y-91298844D01*
X120173599Y-91206774D01*
X120321280Y-91067119D01*
X120437863Y-90900621D01*
X120518586Y-90714081D01*
X120560151Y-90515120D01*
X120560500Y-90508461D01*
X120560500Y-89559200D01*
X120545120Y-89407784D01*
X120484338Y-89213828D01*
X120385797Y-89036056D01*
X120372833Y-89020930D01*
X120318991Y-88958112D01*
X120253523Y-88881729D01*
X120241351Y-88872287D01*
X120097958Y-88761061D01*
X120092919Y-88757152D01*
X119910545Y-88667413D01*
X119904367Y-88665804D01*
X119904365Y-88665803D01*
X119720034Y-88617788D01*
X119720031Y-88617788D01*
X119713852Y-88616178D01*
X119632672Y-88611924D01*
X119517256Y-88605875D01*
X119517252Y-88605875D01*
X119510874Y-88605541D01*
X119309903Y-88635935D01*
X119119148Y-88706119D01*
X119113728Y-88709479D01*
X119113727Y-88709480D01*
X118951824Y-88809863D01*
X118951823Y-88809864D01*
X118946401Y-88813226D01*
X118941763Y-88817612D01*
X118813471Y-88938932D01*
X118798720Y-88952881D01*
X118682137Y-89119379D01*
X118601414Y-89305919D01*
X118559849Y-89504880D01*
X118559500Y-89511539D01*
X118559500Y-90460800D01*
X118574880Y-90612216D01*
X118635662Y-90806172D01*
X118734203Y-90983944D01*
X118866477Y-91138271D01*
X118871514Y-91142178D01*
X118871516Y-91142180D01*
X118889319Y-91155989D01*
X119027081Y-91262848D01*
X119209455Y-91352587D01*
X119220264Y-91355402D01*
X119281142Y-91391931D01*
X119312607Y-91455574D01*
X119314500Y-91477333D01*
X119314500Y-98575779D01*
X119294498Y-98643900D01*
X119240842Y-98690393D01*
X119232009Y-98694029D01*
X119199148Y-98706119D01*
X119193728Y-98709479D01*
X119193727Y-98709480D01*
X119031824Y-98809863D01*
X119031820Y-98809866D01*
X119026401Y-98813226D01*
X118878720Y-98952881D01*
X118762137Y-99119379D01*
X118681414Y-99305919D01*
X118639849Y-99504880D01*
X118639500Y-99511539D01*
X118639500Y-100460800D01*
X118654880Y-100612216D01*
X118715662Y-100806172D01*
X118814203Y-100983944D01*
X118946477Y-101138271D01*
X119107081Y-101262848D01*
X119203964Y-101310520D01*
X119245473Y-101330945D01*
X119297764Y-101378968D01*
X119315790Y-101447638D01*
X119293830Y-101515153D01*
X119238854Y-101560077D01*
X119189843Y-101570000D01*
X117552100Y-101570000D01*
X117483979Y-101549998D01*
X117437486Y-101496342D01*
X117427382Y-101426068D01*
X117456876Y-101361488D01*
X117508591Y-101325751D01*
X117540852Y-101313881D01*
X117546273Y-101310520D01*
X117708176Y-101210137D01*
X117708180Y-101210134D01*
X117713599Y-101206774D01*
X117861280Y-101067119D01*
X117977863Y-100900621D01*
X118058586Y-100714081D01*
X118100151Y-100515120D01*
X118100500Y-100508461D01*
X118100500Y-99559200D01*
X118085120Y-99407784D01*
X118024338Y-99213828D01*
X117925797Y-99036056D01*
X117793523Y-98881729D01*
X117632919Y-98757152D01*
X117627198Y-98754337D01*
X117627195Y-98754335D01*
X117495871Y-98689716D01*
X117443580Y-98641693D01*
X117425500Y-98576661D01*
X117425500Y-91405931D01*
X117445502Y-91337810D01*
X117485104Y-91298844D01*
X117633599Y-91206774D01*
X117781280Y-91067119D01*
X117897863Y-90900621D01*
X117978586Y-90714081D01*
X118020151Y-90515120D01*
X118020500Y-90508461D01*
X118020500Y-89559200D01*
X118005120Y-89407784D01*
X117944338Y-89213828D01*
X117845797Y-89036056D01*
X117832833Y-89020930D01*
X117778991Y-88958112D01*
X117713523Y-88881729D01*
X117701351Y-88872287D01*
X117557958Y-88761061D01*
X117552919Y-88757152D01*
X117370545Y-88667413D01*
X117364367Y-88665804D01*
X117364365Y-88665803D01*
X117180034Y-88617788D01*
X117180031Y-88617788D01*
X117173852Y-88616178D01*
X117092672Y-88611924D01*
X116977256Y-88605875D01*
X116977252Y-88605875D01*
X116970874Y-88605541D01*
X116769903Y-88635935D01*
X116579148Y-88706119D01*
X116573728Y-88709479D01*
X116573727Y-88709480D01*
X116411824Y-88809863D01*
X116411823Y-88809864D01*
X116406401Y-88813226D01*
X116401763Y-88817612D01*
X116273471Y-88938932D01*
X116258720Y-88952881D01*
X116142137Y-89119379D01*
X116061414Y-89305919D01*
X116019849Y-89504880D01*
X116019500Y-89511539D01*
X116019500Y-90460800D01*
X116034880Y-90612216D01*
X116095662Y-90806172D01*
X116194203Y-90983944D01*
X116326477Y-91138271D01*
X116331514Y-91142178D01*
X116331516Y-91142180D01*
X116349319Y-91155989D01*
X116487081Y-91262848D01*
X116669455Y-91352587D01*
X116680264Y-91355402D01*
X116741142Y-91391931D01*
X116772607Y-91455574D01*
X116774500Y-91477333D01*
X116774500Y-98575779D01*
X116754498Y-98643900D01*
X116700842Y-98690393D01*
X116692009Y-98694029D01*
X116659148Y-98706119D01*
X116653728Y-98709479D01*
X116653727Y-98709480D01*
X116491824Y-98809863D01*
X116491820Y-98809866D01*
X116486401Y-98813226D01*
X116338720Y-98952881D01*
X116222137Y-99119379D01*
X116141414Y-99305919D01*
X116099849Y-99504880D01*
X116099500Y-99511539D01*
X116099500Y-100460800D01*
X116114880Y-100612216D01*
X116175662Y-100806172D01*
X116274203Y-100983944D01*
X116406477Y-101138271D01*
X116567081Y-101262848D01*
X116663964Y-101310520D01*
X116705473Y-101330945D01*
X116757764Y-101378968D01*
X116775790Y-101447638D01*
X116753830Y-101515153D01*
X116698854Y-101560077D01*
X116649843Y-101570000D01*
X115566000Y-101570000D01*
X115497879Y-101549998D01*
X115451386Y-101496342D01*
X115440000Y-101444000D01*
X115440000Y-73326000D01*
X115460002Y-73257879D01*
X115513658Y-73211386D01*
X115566000Y-73200000D01*
X116595079Y-73200000D01*
X116663200Y-73220002D01*
G37*
%TD.AperFunction*%
M02*
