%TF.GenerationSoftware,KiCad,Pcbnew,(5.99.0-11667-g1edb96cc5b)*%
%TF.CreationDate,2021-10-01T11:57:37+02:00*%
%TF.ProjectId,tosadapter,746f7361-6461-4707-9465-722e6b696361,rev?*%
%TF.SameCoordinates,Original*%
%TF.FileFunction,Legend,Bot*%
%TF.FilePolarity,Positive*%
%FSLAX46Y46*%
G04 Gerber Fmt 4.6, Leading zero omitted, Abs format (unit mm)*
G04 Created by KiCad (PCBNEW (5.99.0-11667-g1edb96cc5b)) date 2021-10-01 11:57:37*
%MOMM*%
%LPD*%
G01*
G04 APERTURE LIST*
%ADD10C,0.150000*%
%ADD11C,0.120000*%
G04 APERTURE END LIST*
D10*
X139099047Y-86852380D02*
X139099047Y-87566666D01*
X139146666Y-87709523D01*
X139241904Y-87804761D01*
X139384761Y-87852380D01*
X139480000Y-87852380D01*
X138146666Y-87852380D02*
X138622857Y-87852380D01*
X138622857Y-86852380D01*
X137241904Y-87757142D02*
X137289523Y-87804761D01*
X137432380Y-87852380D01*
X137527619Y-87852380D01*
X137670476Y-87804761D01*
X137765714Y-87709523D01*
X137813333Y-87614285D01*
X137860952Y-87423809D01*
X137860952Y-87280952D01*
X137813333Y-87090476D01*
X137765714Y-86995238D01*
X137670476Y-86900000D01*
X137527619Y-86852380D01*
X137432380Y-86852380D01*
X137289523Y-86900000D01*
X137241904Y-86947619D01*
X136527619Y-86852380D02*
X136527619Y-87566666D01*
X136575238Y-87709523D01*
X136670476Y-87804761D01*
X136813333Y-87852380D01*
X136908571Y-87852380D01*
X135575238Y-87852380D02*
X136051428Y-87852380D01*
X136051428Y-86852380D01*
X134670476Y-87757142D02*
X134718095Y-87804761D01*
X134860952Y-87852380D01*
X134956190Y-87852380D01*
X135099047Y-87804761D01*
X135194285Y-87709523D01*
X135241904Y-87614285D01*
X135289523Y-87423809D01*
X135289523Y-87280952D01*
X135241904Y-87090476D01*
X135194285Y-86995238D01*
X135099047Y-86900000D01*
X134956190Y-86852380D01*
X134860952Y-86852380D01*
X134718095Y-86900000D01*
X134670476Y-86947619D01*
X133956190Y-86852380D02*
X133956190Y-87566666D01*
X134003809Y-87709523D01*
X134099047Y-87804761D01*
X134241904Y-87852380D01*
X134337142Y-87852380D01*
X133003809Y-87852380D02*
X133480000Y-87852380D01*
X133480000Y-86852380D01*
X132099047Y-87757142D02*
X132146666Y-87804761D01*
X132289523Y-87852380D01*
X132384761Y-87852380D01*
X132527619Y-87804761D01*
X132622857Y-87709523D01*
X132670476Y-87614285D01*
X132718095Y-87423809D01*
X132718095Y-87280952D01*
X132670476Y-87090476D01*
X132622857Y-86995238D01*
X132527619Y-86900000D01*
X132384761Y-86852380D01*
X132289523Y-86852380D01*
X132146666Y-86900000D01*
X132099047Y-86947619D01*
X131384761Y-86852380D02*
X131384761Y-87566666D01*
X131432380Y-87709523D01*
X131527619Y-87804761D01*
X131670476Y-87852380D01*
X131765714Y-87852380D01*
X130432380Y-87852380D02*
X130908571Y-87852380D01*
X130908571Y-86852380D01*
X129527619Y-87757142D02*
X129575238Y-87804761D01*
X129718095Y-87852380D01*
X129813333Y-87852380D01*
X129956190Y-87804761D01*
X130051428Y-87709523D01*
X130099047Y-87614285D01*
X130146666Y-87423809D01*
X130146666Y-87280952D01*
X130099047Y-87090476D01*
X130051428Y-86995238D01*
X129956190Y-86900000D01*
X129813333Y-86852380D01*
X129718095Y-86852380D01*
X129575238Y-86900000D01*
X129527619Y-86947619D01*
%TO.C, *%
D11*
X151450000Y-98450000D02*
X115770000Y-98450000D01*
X115770000Y-86330000D02*
X151450000Y-86330000D01*
X151450000Y-86330000D02*
X151450000Y-91390000D01*
X115770000Y-98450000D02*
X115770000Y-86330000D01*
X151450000Y-93390000D02*
X151450000Y-98450000D01*
X151450000Y-91390000D02*
G75*
G03*
X151450000Y-93390000I0J-1000000D01*
G01*
%TD*%
M02*
